<svg width="96" height="48" viewBox="0 0 96 48" fill="none" xmlns="http://www.w3.org/2000/svg">
<path d="M68.5679 14.3877H67.7084H67.1031H67.0305C65.0088 14.3877 62.6179 14.4978 59.8153 14.3877H59.3674C58.7621 14.3877 57.4789 14.2715 57.4607 14.2715L56.5649 14.192C55.3543 14.0881 54.1074 13.9291 52.7818 13.7029L51.8012 13.5317L51.2685 13.4522C50.9296 13.3849 49.5011 13.0669 49.1803 12.9875C48.8595 12.908 48.6234 12.8529 48.3389 12.7796C47.8305 12.6512 47.316 12.5044 46.7894 12.3515L46.063 12.1314C45.5727 11.9908 45.0764 11.8257 44.5679 11.6545L43.66 11.3426C43.2181 11.1898 42.7762 11.0247 42.3223 10.8534L52.3036 3.51587L68.5679 14.3877Z" fill="white"/>
<path d="M28.5154 45.5052C26.9012 45.5052 25.727 45.0161 24.9925 44.0377C24.2581 43.0594 23.8828 41.5165 23.8667 39.4089V36.3516C23.8667 34.1993 24.242 32.64 24.9925 31.6739C25.7431 30.7078 26.9416 30.2247 28.588 30.2247C29.626 30.1664 30.654 30.4566 31.5116 31.0502C31.8441 31.2752 32.1222 31.5728 32.3255 31.921C32.5288 32.2692 32.6519 32.6591 32.6859 33.0619C32.6927 33.096 32.7108 33.1266 32.7373 33.1488C32.7637 33.1711 32.7968 33.1835 32.8311 33.1842H35.3492C35.3893 33.1842 35.4278 33.1681 35.4562 33.1395C35.4845 33.1108 35.5005 33.0719 35.5005 33.0314C35.4903 31.8095 35.0157 30.6384 34.1749 29.76C32.9885 28.4148 31.0758 27.7422 28.4367 27.7422C25.9913 27.7422 24.1391 28.4637 22.8801 29.9068C21.621 31.3498 20.9935 33.5022 20.9976 36.3638V39.9959C20.9976 42.6456 21.6271 44.641 22.8861 45.9822C24.1451 47.3233 25.9993 47.9959 28.4488 48C31.4026 48 33.4384 47.1562 34.5562 45.4686C34.89 44.9898 35.153 44.4646 35.3371 43.9093C35.4798 43.348 35.551 42.7706 35.5489 42.1911C35.5489 42.1516 35.5338 42.1136 35.5067 42.0851C35.4797 42.0566 35.4427 42.0398 35.4036 42.0382H32.8372C32.8028 42.0389 32.7697 42.0514 32.7433 42.0736C32.7169 42.0959 32.6988 42.1265 32.6919 42.1605C32.2985 44.2028 30.9426 45.5052 28.5154 45.5052Z" fill="white"/>
<path d="M78.6217 30.353C78.6603 30.353 78.6972 30.3375 78.7245 30.31C78.7517 30.2825 78.767 30.2452 78.767 30.2063V27.8888C78.7679 27.8693 78.7647 27.8498 78.7577 27.8316C78.7507 27.8134 78.74 27.7969 78.7264 27.7831C78.7127 27.7693 78.6964 27.7585 78.6783 27.7515C78.6603 27.7444 78.6411 27.7412 78.6217 27.742H74.3847V23.0032C74.3847 22.9643 74.3694 22.9269 74.3421 22.8994C74.3149 22.8719 74.2779 22.8564 74.2394 22.8564L71.6608 23.6513C71.6223 23.6513 71.5854 23.6668 71.5581 23.6943C71.5309 23.7219 71.5156 23.7592 71.5156 23.7981V27.742H68.7009C68.6624 27.742 68.6255 27.7575 68.5982 27.785C68.571 27.8126 68.5557 27.8499 68.5557 27.8888V30.2063C68.5557 30.2452 68.571 30.2825 68.5982 30.31C68.6255 30.3375 68.6624 30.353 68.7009 30.353H71.5156V42.5823C71.5156 44.2699 71.8908 45.5051 72.6414 46.2878C73.392 47.0705 74.6006 47.47 76.2671 47.4863H78.6278C78.6663 47.4863 78.7033 47.4708 78.7305 47.4433C78.7578 47.4158 78.7731 47.3784 78.7731 47.3395V45.0649C78.7731 45.0259 78.7578 44.9886 78.7305 44.9611C78.7033 44.9336 78.6663 44.9181 78.6278 44.9181H76.5214C76.2234 44.9512 75.9219 44.9132 75.6412 44.807C75.3604 44.7007 75.1083 44.5294 74.9052 44.3066C74.5224 43.6611 74.3508 42.9101 74.4149 42.1604V30.353H78.6217Z" fill="white"/>
<path d="M52.7877 33.0191C52.7747 32.7683 52.732 32.5199 52.6606 32.2793C52.4092 31.4097 51.9827 30.6019 51.4076 29.9068C50.1486 28.4637 48.2964 27.7422 45.851 27.7422C43.2119 27.7422 41.2972 28.4148 40.1068 29.76C39.3014 30.645 38.8674 31.8112 38.8962 33.013C38.8962 33.0536 38.9121 33.0924 38.9405 33.1211C38.9689 33.1498 39.0074 33.1659 39.0475 33.1659H41.5655C41.6008 33.1649 41.6345 33.1516 41.6611 33.1281C41.6876 33.1047 41.7052 33.0726 41.7108 33.0375C41.7275 32.6402 41.8345 32.2521 42.0234 31.9033C42.2124 31.5545 42.4782 31.2542 42.8003 31.0258C43.6608 30.4334 44.6902 30.1433 45.73 30.2003C47.3764 30.2003 48.5749 30.6833 49.3254 31.6494C49.6711 32.109 49.881 32.6581 49.9307 33.2331C49.9307 33.4349 49.9307 33.6428 49.9307 33.8446V36.0092C49.1802 35.9114 48.4296 35.838 47.679 35.7891C46.9285 35.7401 46.3111 35.7157 45.8268 35.7157C43.1837 35.7157 41.2447 36.2171 40.0099 37.2199C38.7751 38.2227 38.1577 39.8145 38.1577 41.9954C38.1577 44.0336 38.7448 45.5195 39.9191 46.453C40.9542 47.2601 43.1272 47.6759 45.3184 47.7982C45.8961 47.8237 46.4749 47.8032 47.0495 47.7371C48.8961 47.5753 50.7158 47.183 52.4669 46.5692C52.5604 46.5411 52.6428 46.4841 52.7025 46.4062C52.7622 46.3283 52.7963 46.2335 52.7998 46.135V33.7957C52.818 33.5144 52.8059 33.2515 52.7877 33.0191ZM42.7459 44.8387C42.4321 44.733 42.1452 44.5588 41.9056 44.3284C41.6661 44.098 41.4797 43.8171 41.3597 43.5058C41.1874 43.0175 41.1053 42.5014 41.1176 41.9832C41.1176 40.6094 41.4747 39.6291 42.189 39.0421C42.9032 38.455 44.1945 38.1615 46.0629 38.1615C46.4684 38.1615 48.8836 38.3694 49.7854 38.4734C49.8304 38.478 49.872 38.4993 49.9023 38.5332C49.9325 38.5671 49.9491 38.6112 49.9489 38.6568V44.4046C49.9488 44.4446 49.9366 44.4837 49.9139 44.5165C49.8911 44.5493 49.859 44.5743 49.8218 44.588C47.5542 45.4536 45.0678 45.5417 42.7459 44.8387V44.8387Z" fill="white"/>
<path d="M95.7157 33.0191C95.6968 32.776 95.6501 32.5359 95.5765 32.3037C95.3251 31.4341 94.8985 30.6263 94.3235 29.9312C93.0645 28.4881 91.2123 27.7666 88.7669 27.7666C86.1197 27.7666 84.205 28.4392 83.0226 29.7844C82.2173 30.6695 81.7833 31.8356 81.812 33.0374C81.812 33.078 81.828 33.1169 81.8564 33.1455C81.8847 33.1742 81.9232 33.1903 81.9634 33.1903H84.4814C84.5166 33.1893 84.5504 33.176 84.5769 33.1525C84.6034 33.1291 84.621 33.097 84.6267 33.0619C84.6434 32.6646 84.7504 32.2766 84.9393 31.9277C85.1282 31.5789 85.394 31.2786 85.7162 31.0502C86.5762 30.4569 87.606 30.1668 88.6458 30.2247C90.2922 30.2247 91.4907 30.7077 92.2413 31.6739C92.5897 32.1319 92.7998 32.6818 92.8466 33.2576C92.8466 33.4593 92.8768 33.6672 92.8768 33.869V36.0336C92.1263 35.9358 91.3757 35.8624 90.6251 35.8135C89.8746 35.7646 89.2511 35.7401 88.7669 35.7401C86.1278 35.7401 84.1908 36.2415 82.956 37.2443C81.7212 38.2471 81.1058 39.839 81.1099 42.0198C81.1099 44.0581 81.697 45.5439 82.8713 46.4774C83.9064 47.2846 86.0794 47.7004 88.2705 47.8226C88.8483 47.8481 89.4271 47.8276 90.0017 47.7615C91.8483 47.5997 93.668 47.2074 95.4191 46.5936C95.5126 46.5655 95.595 46.5085 95.6547 46.4306C95.7144 46.3528 95.7484 46.2579 95.752 46.1595V33.7956C95.7459 33.5144 95.7338 33.2514 95.7157 33.0191ZM85.6738 44.8387C85.36 44.733 85.0732 44.5588 84.8336 44.3284C84.594 44.098 84.4076 43.8171 84.2877 43.5057C84.1153 43.0175 84.0333 42.5014 84.0456 41.9832C84.0456 40.6094 84.4027 39.629 85.1169 39.042C85.8312 38.455 87.1225 38.1615 88.9908 38.1615C89.3964 38.1615 91.8115 38.3694 92.7134 38.4733C92.7578 38.4792 92.7987 38.5009 92.8287 38.5345C92.8587 38.5682 92.8758 38.6115 92.8768 38.6568V44.4046C92.8752 44.4442 92.8623 44.4825 92.8398 44.515C92.8173 44.5475 92.786 44.5729 92.7497 44.588C90.4822 45.4536 87.9958 45.5417 85.6738 44.8387V44.8387Z" fill="white"/>
<path d="M66.1104 30.5734C66.1463 30.5718 66.1802 30.5563 66.205 30.5301C66.2298 30.5039 66.2436 30.469 66.2436 30.4327V30.3227V27.8829C66.2436 27.3937 62.9205 28.1458 62.6118 28.2437C61.9139 28.4029 61.2583 28.7126 60.69 29.1516C60.1216 29.5907 59.654 30.1487 59.319 30.7874V28.4699C59.319 28.449 59.3149 28.4284 59.307 28.4091C59.2991 28.3898 59.2875 28.3723 59.2729 28.3575C59.2583 28.3427 59.241 28.331 59.2219 28.323C59.2028 28.3151 59.1823 28.3109 59.1616 28.3109H56.6618C56.62 28.3109 56.58 28.3277 56.5505 28.3575C56.521 28.3873 56.5044 28.4278 56.5044 28.4699V47.3397C56.5044 47.3825 56.5208 47.4236 56.5501 47.4544C56.5795 47.4852 56.6195 47.5032 56.6618 47.5048H59.2403C59.2826 47.5032 59.3226 47.4852 59.352 47.4544C59.3814 47.4236 59.3977 47.3825 59.3977 47.3397V36.7675C59.3704 35.5253 59.6186 34.2926 60.1241 33.1599C60.4417 32.4428 60.9486 31.8278 61.5892 31.3824C62.2298 30.937 62.9794 30.6782 63.7558 30.6345C64.316 30.5633 64.8801 30.5286 65.4446 30.5306L66.1104 30.5734Z" fill="white"/>
<path d="M67.1334 15.5434C28.5155 27.5159 0 15.5434 0 15.5434L21.2459 0C29.3084 5.97401 36.3178 9.67949 42.3223 11.9664C42.7763 12.1376 43.2182 12.3027 43.66 12.4555L44.568 12.7674C45.0764 12.9386 45.5728 13.1037 46.063 13.2443L46.7894 13.4645C47.316 13.6173 47.8305 13.7641 48.339 13.8925C48.6235 13.9659 48.9019 14.0392 49.1803 14.1004C49.4588 14.1615 51.6439 14.6385 51.8315 14.6752L52.8121 14.8464C54.1377 15.0726 55.3967 15.2316 56.5952 15.3355L57.491 15.415C57.491 15.415 58.7924 15.5068 59.3977 15.5312H59.8456C62.6482 15.6352 65.0391 15.5312 67.0608 15.5312L67.1334 15.5434Z" fill="white"/>
</svg>
