<svg width="80" height="32" viewBox="0 0 80 32" fill="none" xmlns="http://www.w3.org/2000/svg">
<path d="M59.565 22.7377C62.9718 22.7377 65.732 19.973 65.732 16.571C65.732 13.1611 62.9718 10.4009 59.565 10.4009C56.1585 10.4009 53.3994 13.1611 53.3994 16.571C53.3994 19.973 56.1585 22.7377 59.565 22.7377Z" fill="white"/>
<path d="M13.7926 20.5093V31.7943H22.16V1.49146H13.7926V12.9011H8.46701V1.49146H0.0996094V31.7943H8.46701V20.5093H13.7926Z" fill="white"/>
<path d="M44.1436 16.5805C44.1436 8.35374 50.5809 1.62906 58.6959 1.17993H60.4277C68.5427 1.62912 74.9831 8.35374 74.9831 16.5805C74.9831 25.0935 68.0807 32.0001 59.5632 32.0001C51.046 32.0001 44.1436 25.0935 44.1436 16.5805H44.1436ZM59.5632 24.2907C63.8224 24.2907 67.2736 20.8353 67.2736 16.5805C67.2736 12.3223 63.8224 8.87003 59.5632 8.87003C55.3053 8.87003 51.854 12.3224 51.854 16.5805C51.854 20.8353 55.3052 24.2907 59.5632 24.2907Z" fill="white"/>
<path d="M36.7416 1.49148C39.025 1.49148 45.4877 2.76133 45.4877 9.22404C45.4877 14.4222 42.9872 15.9733 41.0529 16.3258C39.6553 16.5813 45.2322 16.3258 45.2322 22.7885C45.2322 32.0498 37.1206 31.7943 37.1206 31.7943H23.9321V1.49146H36.7416L36.7416 1.49148ZM31.4126 8.87076V13.4344H35.8516C35.8516 13.4344 37.6316 13.2203 37.6316 11.0381C37.6316 8.84532 35.791 8.87075 35.791 8.87075H31.4126V8.87076ZM31.4126 20.0291V24.595H35.8516C35.8516 24.595 37.6316 24.3778 37.6316 22.1953C37.6316 20.0025 35.791 20.0291 35.791 20.0291H31.4126Z" fill="white"/>
<path d="M75.2459 5.28345H74.4562V1.58514H75.8399C76.793 1.58514 77.3484 1.8546 77.3484 2.69902C77.3484 3.37993 76.9646 3.62227 76.4663 3.66839L77.4166 5.28344H76.4744L75.619 3.72569H75.2459V5.28344V5.28345ZM75.9461 3.10209C76.3027 3.10209 76.5043 3.02578 76.5043 2.62272C76.5043 2.23866 76.1012 2.20875 75.8016 2.20875H75.2459V3.10209H75.9461V3.10209ZM75.8206 6.86859C73.9878 6.86859 72.3618 5.59958 72.3618 3.43975C72.3618 1.2665 73.9878 0 75.8206 0C77.6481 0 79.2603 1.2665 79.2603 3.43975C79.2603 5.59958 77.648 6.86859 75.8206 6.86859ZM75.8206 0.798027C74.4562 0.798027 73.3533 1.85461 73.3533 3.43975C73.3533 5.014 74.4562 6.08148 75.8206 6.07057V6.08148C77.1469 6.08148 78.2826 5.014 78.2826 3.43975C78.2826 1.8546 77.1469 0.798023 75.8206 0.798023V0.798027Z" fill="white"/>
</svg>
