<svg width="96" height="32" viewBox="0 0 96 32" fill="none" xmlns="http://www.w3.org/2000/svg">
<path d="M3.09324 14.6298C3.09324 13.9815 2.76866 13.6569 2.11951 13.6561H0.344727V8.87379H5.53715C7.5118 8.87379 8.49912 9.70922 8.49912 11.3801V12.0516C8.49772 12.2757 8.4833 12.4995 8.45595 12.7219L8.41278 13.0253H8.49912C9.11595 11.8022 10.0214 10.7477 11.1373 9.95305C12.6563 8.8706 14.4318 8.32977 16.464 8.33057C21.7284 8.33057 24.361 11.1934 24.3618 16.9191V25.7474C24.3618 26.3957 24.686 26.7203 25.3343 26.7211H27.1091V31.4591H21.7428C19.7378 31.4591 18.7353 30.4565 18.7353 28.4515V18.0883C18.7353 15.0148 17.5529 13.1548 15.1869 13.1548C12.0427 13.1548 10.0233 15.0148 9.12868 18.0883C8.81238 19.0588 8.65921 20.0751 8.67539 21.0958V31.4591H3.09324V14.6298Z" fill="white"/>
<path d="M32.1924 14.6299C32.1924 13.9816 31.8678 13.657 31.2186 13.6562H29.4438V8.8739H34.8102C36.7864 8.8739 37.7745 9.87641 37.7745 11.8814V25.7475C37.7745 26.3959 38.0991 26.7204 38.7482 26.7212H40.517V31.4592H35.1567C33.1805 31.4592 32.1924 30.4567 32.1924 28.4516V14.6299ZM32.1924 0H37.7745V4.78111H32.1924V0Z" fill="white"/>
<path d="M51.2354 11.4677C51.2354 11.4389 51.3661 11.2794 51.6252 10.988C51.9804 10.5769 52.388 10.2141 52.8375 9.90879C53.4785 9.445 54.186 9.08111 54.9361 8.82953C55.925 8.49244 56.9637 8.3246 58.0084 8.33307C61.0503 8.33307 63.4886 9.42912 65.3234 11.6212C67.1253 13.7869 68.0263 16.635 68.0263 20.1653C68.0263 23.7141 67.0454 26.5845 65.0835 28.7766C63.1648 30.9255 60.6909 32 57.6618 32C56.6311 32.0086 55.6065 31.8403 54.6327 31.5023C53.8838 31.2372 53.1771 30.8657 52.5341 30.3991C52.0872 30.0813 51.6802 29.7109 51.3218 29.2959C51.0628 29.0065 50.9332 28.8406 50.9332 28.7982V31.4592H45.6101V5.75604C45.6101 5.10689 45.2855 4.78271 44.6364 4.78351H42.8628V0H48.2279C50.2329 0 51.2354 1.00251 51.2354 3.00753V11.4677ZM52.4478 25.0724C53.4871 26.5114 54.9005 27.2309 56.6881 27.2309C57.4448 27.2472 58.1955 27.0931 58.8847 26.7801C59.5738 26.4671 60.1837 26.0031 60.6694 25.4225C61.7942 24.125 62.3566 22.4014 62.3566 20.2517C62.3566 18.1171 61.8302 16.4007 60.7773 15.1024C59.7532 13.8033 58.4045 13.1542 56.7313 13.155C55.1324 13.155 53.8201 13.7174 52.7944 14.8422C51.64 16.1261 51.0628 17.9437 51.0628 20.2948C51.0628 22.1847 51.5244 23.7785 52.4478 25.076" fill="white"/>
<path d="M77.3246 22.4569C76.9867 21.4877 76.8617 20.457 76.9578 19.4351C77.054 18.4131 77.3692 17.4239 77.8819 16.5347C78.3946 15.6455 79.0928 14.8771 79.9291 14.2819C80.7653 13.6867 81.72 13.2786 82.7281 13.0854V8.28027C80.8787 8.49101 79.1046 9.1326 77.5482 10.1535C75.9918 11.1744 74.6966 12.5461 73.7667 14.1585C72.8367 15.7708 72.2979 17.5788 72.1935 19.4372C72.0892 21.2956 72.4222 23.1526 73.1658 24.8589L77.3246 22.4569Z" fill="white"/>
<path d="M91.199 20.1017C91.1993 20.9036 91.0647 21.6997 90.8009 22.4569L94.9584 24.8553C95.7014 23.149 96.0338 21.2924 95.929 19.4343C95.8243 17.5763 95.2852 15.7688 94.3552 14.1569C93.4252 12.545 92.1301 11.1737 90.5739 10.1531C89.0178 9.13246 87.244 8.49102 85.395 8.28027V13.0854C87.0279 13.3966 88.5012 14.2676 89.5609 15.5484C90.6206 16.8291 91.2003 18.4394 91.2002 20.1017" fill="white"/>
<path d="M89.4674 24.7642C88.7984 25.5427 87.9692 26.1676 87.0363 26.596C86.1035 27.0244 85.0892 27.2462 84.0627 27.2462C83.0362 27.2462 82.0218 27.0244 81.089 26.596C80.1562 26.1676 79.3269 25.5427 78.658 24.7642L74.498 27.1625C75.6021 28.6611 77.0428 29.8794 78.7041 30.7189C80.3654 31.5585 82.2007 31.9959 84.0621 31.9959C85.9235 31.9959 87.7588 31.5585 89.4201 30.7189C91.0814 29.8794 92.5221 28.6611 93.6261 27.1625L89.4674 24.7642Z" fill="white"/>
</svg>
