<svg width="180" height="48" viewBox="0 0 180 48" fill="none" xmlns="http://www.w3.org/2000/svg">
<path d="M22.7123 0.735107H23.8112C24.4295 0.756707 25.0469 0.790007 25.6625 0.848507C25.4159 1.79261 25.1576 2.73491 24.9137 3.67991C21.4316 3.40181 17.8883 4.03181 14.7149 5.49161C14.2361 4.65461 13.7447 3.82481 13.2578 2.99231C16.2071 1.59191 19.4471 0.808907 22.7123 0.735107Z" fill="white"/>
<path d="M29.7124 4.65916C29.968 3.72946 30.2182 2.79886 30.4648 1.86646C33.0622 2.73046 35.5255 4.01746 37.6729 5.72116C39.0364 6.79756 40.2712 8.03416 41.3692 9.38056C40.5205 9.86566 39.679 10.3607 38.8276 10.8395C36.4237 8.00176 33.244 5.83186 29.7124 4.65916Z" fill="white"/>
<path d="M1.69189 15.2477C3.2561 11.4452 5.813 8.05222 9.0809 5.54932C9.5714 6.38722 10.0502 7.23232 10.5389 8.07201C7.9118 10.1618 5.8283 12.9158 4.5044 15.9983C3.5675 15.7481 2.6306 15.4943 1.69189 15.2477Z" fill="white"/>
<path d="M21.5612 6.11355C24.722 5.80305 27.9638 6.34395 30.8438 7.68675C33.5807 8.95395 35.9864 10.9259 37.7729 13.3559C39.5738 15.7949 40.7411 18.6983 41.1182 21.7079C41.5718 25.2323 40.9553 28.889 39.3443 32.0588C37.745 35.2367 35.1782 37.9169 32.0741 39.6548C29.1527 41.3036 25.7588 42.0929 22.4099 41.9192C19.5713 41.7833 16.7696 40.9544 14.3144 39.5234C11.5226 37.9061 9.18173 35.522 7.61393 32.7023C5.99483 29.8088 5.21363 26.4581 5.37473 23.1479C5.50973 20.0906 6.45113 17.0756 8.07743 14.4845C9.94853 11.4857 12.7214 9.05745 15.9461 7.60845C17.7191 6.80655 19.6244 6.30075 21.5612 6.11355ZM19.8818 9.11865C17.072 9.69465 14.4548 11.1437 12.4721 13.2155C10.3085 15.281 8.81273 18.0359 8.29073 20.9834C8.02613 22.3478 8.05313 23.7428 8.07563 25.1252C8.19263 28.1402 9.30143 31.1066 11.1986 33.4538C11.7134 34.1045 12.3074 34.685 12.8978 35.2664C14.8634 37.1645 17.3906 38.4704 20.0762 38.9762C21.5459 39.2633 23.0525 39.2606 24.5429 39.2039C24.2171 37.5146 24.0173 35.7902 23.4674 34.1522C23.2019 33.416 22.8185 32.7275 22.3928 32.0714C22.2992 31.9301 22.2029 31.7825 22.0562 31.6916C21.5144 31.3838 20.951 31.1057 20.3417 30.9617C19.4741 30.644 18.4877 30.3983 17.9027 29.6225C17.3087 29.0024 17.2295 28.0988 17.2124 27.2843C17.1926 26.1323 17.639 25.0532 17.9468 23.9642C17.0243 23.9003 16.0919 23.849 15.1955 23.6087C14.4314 23.426 13.7231 23.0714 13.0274 22.7141C12.2984 22.3352 11.726 21.7367 11.2013 21.1166C10.6856 20.4974 10.4921 19.691 10.295 18.9278C10.2743 18.6785 10.1087 18.2447 10.4435 18.1421C11.3327 18.0071 12.2363 18.0251 13.1336 18.0332C14.3873 18.0404 15.6194 18.3014 16.8362 18.5732C18.2825 18.9557 19.664 19.6595 20.7494 20.699C21.0716 20.456 21.4289 20.2643 21.8042 20.1149C21.7835 19.412 21.9329 18.7217 22.0184 18.0278C22.2794 16.1648 23.1956 14.4692 24.2954 12.9707C24.4592 12.7538 24.731 12.5621 25.0154 12.6449C25.343 12.7511 25.6085 12.9905 25.8272 13.2479C26.3618 13.958 26.882 14.7293 27.0368 15.6221C27.3563 17.027 27.2177 18.4832 26.9747 19.889C27.4049 20.0105 27.8612 20.1059 28.2257 20.3822C28.5488 20.6216 28.7018 21.0086 28.8791 21.3551C29.1194 21.3398 29.3444 21.4496 29.5028 21.626C29.9411 22.0985 30.1202 22.7609 30.1283 23.3936C30.3155 23.5259 30.5072 23.6555 30.7259 23.7293C31.7654 24.0731 32.8463 24.2756 33.8849 24.6203C34.3547 24.8606 34.8722 24.5942 35.3699 24.6554C35.7866 24.6797 36.3536 24.7823 36.4805 25.2539C36.5723 25.703 36.5903 26.216 36.3122 26.6075C36.1142 26.8892 36.1844 27.2636 36.0125 27.5588C35.6084 28.4948 34.6922 29.0231 33.9353 29.6414C33.7319 29.8367 33.3701 29.8439 33.2657 30.1355C32.9651 30.7853 32.4242 31.2731 31.9049 31.7465C31.3766 32.1443 30.7439 32.4062 30.0932 32.5151C29.3795 32.6051 28.6568 32.5844 27.9413 32.5313C28.3013 34.3943 28.8971 36.2033 29.4974 38.0006C31.7141 37.052 33.5888 35.4491 35.135 33.6221C37.6658 30.5585 38.8736 26.4581 38.4839 22.5098C38.2427 19.9745 37.3436 17.5058 35.9036 15.4061C34.0514 12.6926 31.3118 10.5839 28.1933 9.53895C25.5311 8.63265 22.6223 8.50125 19.8818 9.11865Z" fill="white"/>
<path d="M41.5288 14.955C42.3667 14.4843 43.1902 13.9884 44.0272 13.5168C45.6275 16.7199 46.5221 20.2857 46.5167 23.8722C46.5221 24.9819 46.442 26.0907 46.2971 27.1914C45.3575 26.9475 44.4205 26.6928 43.4836 26.4408C43.9831 22.5276 43.2838 18.4857 41.5288 14.955Z" fill="white"/>
<path d="M89.2468 16.109C91.1368 15.8381 93.1303 16.1477 94.798 17.0972C96.5566 18.0818 97.8976 19.7783 98.4448 21.7187C98.9839 23.6231 98.8354 25.7309 97.9678 27.5165C97.0714 29.3938 95.3848 30.8599 93.4174 31.5259C91.6588 32.1271 89.7094 32.1523 87.9302 31.6168C86.1455 31.0831 84.5561 29.9041 83.5625 28.3238C81.8768 25.6859 81.9344 22.0472 83.7254 19.4759C84.9764 17.6327 87.0482 16.4096 89.2468 16.109ZM89.4952 19.2455C88.3928 19.4723 87.3938 20.1419 86.7611 21.0725C85.358 23.1065 85.6811 26.1989 87.617 27.7865C88.8419 28.8178 90.6157 29.0968 92.1187 28.5784C93.1033 28.2418 93.9529 27.5426 94.4866 26.6507C95.2111 25.4609 95.3713 23.9723 95.0239 22.634C94.7287 21.5018 94.015 20.4731 93.0205 19.8476C91.9864 19.187 90.6886 18.9926 89.4952 19.2455Z" fill="white"/>
<path d="M112.275 16.109C114.057 15.8552 115.929 16.1126 117.536 16.9415C119.02 17.6975 120.252 18.9422 120.98 20.4407C122.297 23.1191 121.994 26.5391 120.14 28.8953C119.017 30.3542 117.362 31.3757 115.569 31.7762C113.647 32.2046 111.572 32.0192 109.791 31.1624C108.331 30.464 107.096 29.3012 106.327 27.8765C105.397 26.1773 105.15 24.1388 105.554 22.2524C105.914 20.5676 106.851 19.0133 108.176 17.9126C109.336 16.9388 110.778 16.3214 112.275 16.109ZM112.537 19.2383C111.534 19.439 110.608 19.9979 109.971 20.7989C108.463 22.6727 108.561 25.6499 110.216 27.4031C111.297 28.5821 113.017 29.0618 114.568 28.7342C115.861 28.4858 117.006 27.6173 117.616 26.4536C118.614 24.5753 118.346 22.0499 116.842 20.5127C115.759 19.3697 114.064 18.9152 112.537 19.2383Z" fill="white"/>
<path d="M62.81 16.2871C65.2445 16.288 67.679 16.2844 70.1144 16.2889C71.5958 16.3123 73.1546 16.6957 74.2616 17.7334C75.2785 18.6631 75.7114 20.0815 75.6871 21.4306C75.7069 22.6969 75.3118 24.0073 74.4191 24.9325C73.8611 25.5283 73.1411 25.9513 72.3815 26.2366C73.6487 28.0699 74.9051 29.9113 76.1695 31.7464C74.8448 31.7464 73.52 31.7437 72.1952 31.7482C71.0783 30.1075 69.974 28.4578 68.8607 26.8153C67.9751 26.8153 67.0895 26.8153 66.2039 26.8153C66.2039 28.4587 66.2039 30.103 66.2039 31.7464C65.0726 31.7455 63.9413 31.7464 62.81 31.7464C62.8091 26.593 62.81 21.4405 62.81 16.2871ZM66.2039 19.3498C66.2039 20.8258 66.203 22.3018 66.2048 23.7778C67.3271 23.7778 68.4485 23.7778 69.5708 23.7778C70.1495 23.7787 70.7471 23.6878 71.2511 23.3881C72.368 22.7653 72.5435 21.0868 71.7686 20.1337C71.2718 19.5613 70.4789 19.3732 69.7508 19.3516C68.5691 19.3462 67.3865 19.3507 66.2039 19.3498Z" fill="white"/>
<path d="M129.062 16.287C131.55 16.2888 134.037 16.2825 136.524 16.2906C137.977 16.3311 139.538 16.7649 140.498 17.9232C141.318 18.87 141.484 20.2371 141.182 21.4206C140.931 22.4151 140.172 23.1864 139.31 23.6949C140.079 23.9955 140.839 24.3969 141.379 25.0377C141.849 25.5885 142.095 26.3031 142.151 27.0186C142.246 28.0509 142.052 29.1561 141.385 29.9778C140.605 30.9615 139.367 31.4439 138.161 31.6482C137.088 31.839 135.996 31.7805 134.912 31.7904C132.962 31.7895 131.012 31.7904 129.062 31.7895C129.063 26.6226 129.063 21.4548 129.062 16.287ZM132.396 19.2228C132.394 20.3118 132.395 21.3999 132.395 22.4889C133.322 22.4871 134.249 22.4889 135.176 22.4871C135.908 22.5258 136.703 22.4952 137.338 22.0821C137.995 21.6555 138.111 20.6925 137.752 20.0382C137.391 19.4433 136.645 19.2642 135.997 19.23C134.797 19.2147 133.595 19.23 132.396 19.2228ZM132.396 25.3383C132.394 26.4678 132.395 27.5982 132.395 28.7277C133.804 28.725 135.213 28.734 136.621 28.7232C137.335 28.6953 138.17 28.5468 138.594 27.906C138.975 27.2598 138.902 26.2869 138.269 25.8207C137.747 25.4373 137.074 25.3581 136.445 25.341C135.095 25.3356 133.745 25.3419 132.396 25.3383Z" fill="white"/>
<path d="M149.24 31.6834C149.243 26.5516 149.256 21.4189 149.261 16.2871C153.138 16.288 157.015 16.2862 160.892 16.288C160.889 17.2942 160.894 18.3013 160.889 19.3075C158.131 19.3048 155.372 19.3084 152.614 19.3057C152.612 20.3452 152.613 21.3838 152.613 22.4224C155.039 22.4242 157.466 22.4206 159.892 22.4242C159.892 23.4313 159.891 24.4375 159.892 25.4437C157.466 25.4428 155.039 25.4437 152.613 25.4437C152.613 26.5174 152.613 27.5902 152.613 28.6639C155.407 28.6639 158.202 28.6648 160.996 28.663C160.996 29.6701 160.996 30.6772 160.996 31.6834C157.078 31.6825 153.159 31.6834 149.24 31.6834Z" fill="white"/>
<path d="M167.213 16.3088C171.475 16.3079 175.737 16.3079 180 16.3088V19.4318C178.442 19.4327 176.884 19.4309 175.327 19.4327C175.327 23.5304 175.328 27.629 175.327 31.7267C174.189 31.7276 173.05 31.7267 171.912 31.7267C171.912 27.629 171.912 23.5304 171.912 19.4327C170.346 19.4309 168.779 19.4327 167.213 19.4318C167.212 18.3905 167.212 17.3492 167.213 16.3088Z" fill="white"/>
<path d="M0 23.3828C0.0495 22.2389 0.1512 21.0968 0.342 19.9673C1.2681 20.2094 2.1897 20.465 3.1122 20.7179C2.9718 22.0616 2.8332 23.4125 2.8899 24.7661C2.9502 26.7614 3.3444 28.7378 3.9888 30.6242C4.0923 30.8411 3.9375 31.0499 3.7395 31.1318C2.9943 31.5206 2.3022 32.003 1.548 32.3729C0.6111 29.9303 0.0873 27.3347 0 24.7202V23.3828Z" fill="white"/>
<path d="M42.3376 31.2929C42.4717 31.2182 42.6193 31.3055 42.7534 31.3343C43.5256 31.5755 44.3238 31.7267 45.0924 31.9778C44.1825 34.5608 42.7858 36.9728 41.0119 39.059C39.6826 40.6223 38.1364 41.9966 36.4543 43.1702C35.971 42.3395 35.4904 41.507 35.0215 40.6682C36.0637 39.8735 37.0861 39.0437 37.9888 38.0888C39.7771 36.2339 41.1874 34.0226 42.1423 31.6313C42.1981 31.5143 42.2296 31.3739 42.3376 31.2929Z" fill="white"/>
<path d="M3.83398 36.7594C4.65118 36.2572 5.48638 35.7856 6.31348 35.3005C8.35828 38.3551 11.2293 40.8463 14.5539 42.4186C14.301 43.3618 14.0508 44.3068 13.8033 45.2518C11.7396 44.3122 9.79559 43.0981 8.08198 41.6113C6.44758 40.2028 5.02918 38.5531 3.83398 36.7594Z" fill="white"/>
<path d="M19.1878 43.9773C23.0164 44.7522 27.0556 44.3985 30.6943 42.9792C31.1785 43.8198 31.6627 44.6613 32.1532 45.4992C29.5369 46.5693 26.7325 47.1849 23.9047 47.265H22.6465C21.2335 47.211 19.8241 47.0526 18.439 46.7691C18.6856 45.8376 18.9457 44.9097 19.1878 43.9773Z" fill="white"/>
</svg>
