<svg width="179" height="40" viewBox="0 0 179 40" fill="none" xmlns="http://www.w3.org/2000/svg">
<path d="M12.5399 1.13614L18.586 11.2739L20.4956 10.1378L14.4475 0L12.5399 1.13614ZM8.94581 3.26882L15.0159 13.4253L16.9222 12.2891L10.8521 2.13268L8.94581 3.26882ZM5.327 5.43089L8.94314 11.4202L2.83564 8.00174L1.75293 9.94072L7.80433 13.3258H0.870605V15.5446H7.57724L1.64473 18.6718L2.67935 20.6355L8.85297 17.3807L5.08454 23.2551L6.95273 24.4534L13.3528 14.4365L7.22658 4.28273L5.327 5.43089ZM8.57512 25.5641L14.702 35.7159L16.6016 34.5678L12.9841 28.5785L19.0916 31.9956L20.175 30.0579L14.1242 26.6722H21.0573V24.4534H14.3507L20.2825 21.3268L19.2492 19.3631L13.0749 22.6186L16.8434 16.7422L14.9758 15.5446L8.57512 25.5641ZM5.02242 27.7008L11.0765 37.8653L12.9827 36.7292L6.92801 26.564L5.02242 27.7008ZM1.42365 29.8349L7.48039 40L9.38798 38.8619L3.33391 28.6987L1.42365 29.8349Z" fill="white"/>
<path fill-rule="evenodd" clip-rule="evenodd" d="M37.4649 15.2462C37.1316 14.8255 36.6801 14.5142 36.111 14.3132C35.5413 14.1114 35.0023 14.0106 34.494 14.0106C34.1954 14.0106 33.8888 14.046 33.5736 14.1161C33.2583 14.1856 32.9598 14.2958 32.6799 14.4447C32.3994 14.593 32.1716 14.7901 31.996 15.0359C31.821 15.2816 31.7335 15.5795 31.7335 15.9295C31.7335 16.4906 31.9439 16.9201 32.3646 17.218C32.7854 17.5159 33.3151 17.7697 33.955 17.9807C34.5948 18.1905 35.2828 18.4015 36.0189 18.6112C36.7549 18.8223 37.4429 19.1202 38.0827 19.5056C38.722 19.891 39.253 20.4086 39.6731 21.0565C40.0939 21.7051 40.3043 22.5727 40.3043 23.6594C40.3043 24.694 40.1112 25.5964 39.7258 26.3672C39.3404 27.1386 38.8188 27.7785 38.1616 28.2861C37.5043 28.7951 36.7416 29.1718 35.8746 29.4169C35.0063 29.6621 34.0906 29.7856 33.1267 29.7856C31.9171 29.7856 30.7957 29.6006 29.7617 29.2326C28.7271 28.8652 27.764 28.2694 26.8696 27.4452L29.7878 24.2378C30.2086 24.7989 30.7382 25.2324 31.3788 25.539C32.018 25.8455 32.6799 25.9992 33.3632 25.9992C33.6958 25.9992 34.0338 25.9598 34.3758 25.8809C34.7177 25.8021 35.0237 25.6839 35.2955 25.5263C35.5673 25.368 35.7864 25.1669 35.9534 24.9211C36.1197 24.676 36.2025 24.3868 36.2025 24.0542C36.2025 23.4931 35.9881 23.0509 35.5587 22.7257C35.1292 22.4017 34.5902 22.1259 33.9423 21.8981C33.2931 21.6703 32.5924 21.4419 31.839 21.2148C31.0849 20.9871 30.3836 20.6798 29.7357 20.2944C29.0871 19.9084 28.5475 19.4001 28.1186 18.7689C27.6885 18.1384 27.4741 17.3061 27.4741 16.2715C27.4741 15.2723 27.6711 14.3966 28.0659 13.6426C28.4606 12.8891 28.9863 12.258 29.6435 11.7497C30.3008 11.2414 31.0589 10.8607 31.9171 10.6062C32.7761 10.3524 33.6611 10.2241 34.5728 10.2241C35.6248 10.2241 36.6407 10.3737 37.6225 10.6716C38.6044 10.9702 39.4894 11.4698 40.2775 12.1705L37.4649 15.2462Z" fill="white"/>
<path d="M46.2107 22.9225C46.2107 23.8869 46.4865 24.6671 47.0389 25.2629C47.5906 25.8587 48.3667 26.1566 49.3653 26.1566C50.3645 26.1566 51.14 25.8587 51.6923 25.2629C52.2447 24.6671 52.5206 23.8869 52.5206 22.9225C52.5206 21.9593 52.2447 21.1792 51.6923 20.5827C51.14 19.9869 50.3645 19.689 49.3653 19.689C48.3667 19.689 47.5906 19.9869 47.0389 20.5827C46.4865 21.1792 46.2107 21.9593 46.2107 22.9225ZM42.5825 16.5344H46.2107V18.2169H46.2635C46.4211 17.9892 46.6268 17.7567 46.8806 17.5196C47.1351 17.2838 47.433 17.0688 47.775 16.8757C48.1169 16.6834 48.489 16.5258 48.8924 16.4022C49.2952 16.2806 49.7246 16.2185 50.1802 16.2185C51.1266 16.2185 51.9856 16.3808 52.757 16.7048C53.5285 17.0294 54.1897 17.4849 54.7421 18.072C55.2945 18.6591 55.7186 19.3564 56.0172 20.1619C56.315 20.9688 56.464 21.8538 56.464 22.8176C56.464 23.712 56.3277 24.5662 56.0566 25.3811C55.7847 26.196 55.3993 26.9187 54.8997 27.5498C54.4001 28.181 53.791 28.6853 53.0723 29.0614C52.3536 29.4387 51.5387 29.6271 50.6277 29.6271C49.8035 29.6271 49.0367 29.4995 48.3267 29.2457C47.6173 28.9919 47.0342 28.5584 46.5787 27.9446H46.5259V35.3058H42.5825V16.5344Z" fill="white"/>
<path fill-rule="evenodd" clip-rule="evenodd" d="M58.6313 16.5344H62.5748V18.585H62.6275C63.0483 17.7968 63.5473 17.205 64.1264 16.8103C64.7041 16.4162 65.4315 16.2185 66.3085 16.2185C66.5356 16.2185 66.7633 16.2279 66.9918 16.2452C67.2189 16.2633 67.4293 16.298 67.6223 16.3508V19.9522C67.3424 19.8647 67.0659 19.7992 66.7947 19.7552C66.5222 19.7118 66.2377 19.6897 65.9398 19.6897C65.1864 19.6897 64.5899 19.7946 64.1524 20.0043C63.7136 20.2154 63.3763 20.5086 63.1398 20.886C62.9034 21.2627 62.7498 21.7135 62.6803 22.2398C62.6102 22.7655 62.5748 23.3433 62.5748 23.9751V29.3118H58.6313V16.5344Z" fill="white"/>
<path d="M69.7977 29.3119H73.7411V16.5345H69.7977V29.3119ZM69.4824 12.5116C69.4824 11.8811 69.7062 11.3414 70.153 10.8952C70.5999 10.4484 71.1389 10.2246 71.7701 10.2246C72.4006 10.2246 72.9396 10.4484 73.3864 10.8952C73.8333 11.3414 74.057 11.8811 74.057 12.5116C74.057 13.1428 73.8333 13.6818 73.3864 14.1286C72.9396 14.5755 72.4006 14.7992 71.7701 14.7992C71.1389 14.7992 70.5999 14.5755 70.153 14.1286C69.7062 13.6818 69.4824 13.1428 69.4824 12.5116Z" fill="white"/>
<path fill-rule="evenodd" clip-rule="evenodd" d="M76.5811 16.5344H80.3669V18.2697H80.4196C80.5418 18.0239 80.7168 17.7788 80.9453 17.5336C81.173 17.2885 81.4449 17.0694 81.7601 16.8764C82.0761 16.684 82.4347 16.5258 82.8382 16.4029C83.2409 16.2806 83.6791 16.2185 84.1527 16.2185C85.1519 16.2185 85.958 16.3728 86.5719 16.6794C87.1844 16.986 87.6626 17.4108 88.0046 17.9544C88.3459 18.4975 88.5783 19.1367 88.7012 19.8734C88.8234 20.6094 88.8849 21.4076 88.8849 22.2659V29.3118H84.9415V23.0547C84.9415 22.6867 84.9281 22.3053 84.9021 21.9112C84.8753 21.5165 84.7965 21.1531 84.6656 20.8198C84.534 20.4872 84.3323 20.2154 84.0605 20.0043C83.7886 19.7946 83.3992 19.6897 82.8909 19.6897C82.382 19.6897 81.9705 19.7812 81.6553 19.9656C81.34 20.1492 81.0982 20.395 80.9319 20.7016C80.7656 21.0082 80.6561 21.3548 80.6033 21.7402C80.5505 22.1256 80.5245 22.5291 80.5245 22.9492V29.3118H76.5811V16.5344Z" fill="white"/>
<path d="M95.1422 22.8443C95.1422 23.2644 95.2203 23.6639 95.3786 24.0406C95.5362 24.4173 95.7607 24.7506 96.0485 25.0391C96.3384 25.329 96.671 25.5608 97.0484 25.7358C97.4251 25.9114 97.8412 25.9989 98.2968 25.9989C98.7349 25.9989 99.147 25.9114 99.5331 25.7358C99.9178 25.5608 100.256 25.329 100.546 25.0391C100.834 24.7506 101.057 24.4173 101.215 24.0406C101.373 23.6639 101.452 23.2644 101.452 22.8443C101.452 22.4235 101.373 22.0248 101.215 21.6481C101.057 21.2714 100.834 20.9381 100.546 20.6488C100.256 20.3596 99.9178 20.1279 99.5331 19.9522C99.147 19.7772 98.7349 19.689 98.2968 19.689C97.8412 19.689 97.4251 19.7772 97.0484 19.9522C96.671 20.1279 96.3384 20.3596 96.0485 20.6488C95.7607 20.9381 95.5362 21.2714 95.3786 21.6481C95.2203 22.0248 95.1422 22.4235 95.1422 22.8443ZM105.08 28.2331C105.08 30.6524 104.471 32.4878 103.253 33.7415C102.034 34.9945 100.182 35.6217 97.6923 35.6217C96.5521 35.6217 95.432 35.4935 94.3266 35.2403C93.2232 34.9858 92.206 34.4909 91.2769 33.7549L93.459 30.4947C94.0721 31.003 94.7167 31.4058 95.3913 31.7043C96.0672 32.0022 96.8066 32.1512 97.6128 32.1512C98.8224 32.1512 99.7121 31.8573 100.282 31.2702C100.851 30.6824 101.137 29.9337 101.137 29.0226V27.7863H101.084C100.628 28.4001 100.063 28.8343 99.3882 29.0881C98.7129 29.3426 98.0777 29.4695 97.4826 29.4695C96.5354 29.4695 95.6772 29.3078 94.9057 28.9825C94.1336 28.6586 93.4723 28.2031 92.9206 27.616C92.3689 27.0289 91.9435 26.3322 91.6462 25.526C91.347 24.7199 91.1987 23.8342 91.1987 22.8704C91.1987 22.0288 91.3343 21.2052 91.6055 20.399C91.878 19.5929 92.2627 18.8829 92.7623 18.269C93.2626 17.6559 93.8718 17.1609 94.5904 16.7842C95.3091 16.4069 96.1233 16.2185 97.0351 16.2185C97.5961 16.2185 98.1084 16.2806 98.5733 16.4022C99.0375 16.5258 99.4536 16.6834 99.8216 16.8757C100.19 17.0694 100.505 17.2838 100.769 17.5196C101.031 17.7567 101.242 17.9892 101.399 18.2169H101.452V16.5344H105.08V28.2331Z" fill="white"/>
<path d="M111.352 22.9228C111.352 23.8873 111.629 24.6674 112.181 25.2632C112.732 25.859 113.509 26.1569 114.508 26.1569C115.507 26.1569 116.282 25.859 116.834 25.2632C117.387 24.6674 117.662 23.8873 117.662 22.9228C117.662 21.9596 117.387 21.1795 116.834 20.583C116.282 19.9872 115.507 19.6893 114.508 19.6893C113.509 19.6893 112.732 19.9872 112.181 20.583C111.629 21.1795 111.352 21.9596 111.352 22.9228ZM107.724 9.43604H111.668V17.9013H111.72C112.177 17.2882 112.76 16.8547 113.47 16.6002C114.179 16.3464 114.945 16.2188 115.769 16.2188C116.682 16.2188 117.495 16.4072 118.214 16.7845C118.933 17.1613 119.542 17.6649 120.042 18.2961C120.542 18.9272 120.926 19.6499 121.199 20.4648C121.47 21.2797 121.606 22.134 121.606 23.0283C121.606 23.9928 121.457 24.8778 121.16 25.684C120.861 26.4902 120.436 27.1868 119.884 27.7739C119.332 28.3617 118.671 28.8165 117.899 29.1411C117.127 29.4651 116.269 29.6274 115.322 29.6274C114.867 29.6274 114.437 29.5653 114.035 29.4437C113.631 29.3202 113.259 29.1632 112.917 28.9702C112.575 28.7778 112.277 28.5621 112.023 28.3256C111.768 28.0892 111.563 27.8574 111.406 27.629H111.352V29.3115H107.724V9.43604Z" fill="white"/>
<path d="M127.391 22.9225C127.391 23.8869 127.666 24.6671 128.219 25.2629C128.771 25.8587 129.546 26.1566 130.545 26.1566C131.545 26.1566 132.319 25.8587 132.872 25.2629C133.424 24.6671 133.701 23.8869 133.701 22.9225C133.701 21.9593 133.424 21.1792 132.872 20.5827C132.319 19.9869 131.545 19.689 130.545 19.689C129.546 19.689 128.771 19.9869 128.219 20.5827C127.666 21.1792 127.391 21.9593 127.391 22.9225ZM123.447 22.9225C123.447 21.9066 123.631 20.9868 123.999 20.1619C124.367 19.3391 124.871 18.6331 125.511 18.0459C126.15 17.4588 126.904 17.0073 127.771 16.6921C128.639 16.3761 129.564 16.2185 130.545 16.2185C131.526 16.2185 132.451 16.3761 133.319 16.6921C134.186 17.0073 134.94 17.4588 135.581 18.0459C136.22 18.6331 136.724 19.3391 137.091 20.1619C137.459 20.9868 137.645 21.9066 137.645 22.9225C137.645 23.939 137.459 24.8594 137.091 25.6837C136.724 26.5072 136.22 27.2125 135.581 27.7996C134.94 28.3874 134.186 28.8376 133.319 29.1535C132.451 29.4695 131.526 29.6271 130.545 29.6271C129.564 29.6271 128.639 29.4695 127.771 29.1535C126.904 28.8376 126.15 28.3874 125.511 27.7996C124.871 27.2125 124.367 26.5072 123.999 25.6837C123.631 24.8594 123.447 23.939 123.447 22.9225Z" fill="white"/>
<path d="M147.003 23.712C146.704 23.712 146.332 23.7253 145.885 23.7514C145.439 23.7774 145.008 23.8522 144.597 23.9751C144.185 24.0973 143.834 24.2817 143.546 24.5268C143.256 24.7726 143.111 25.1146 143.111 25.5521C143.111 26.0256 143.313 26.3763 143.717 26.6034C144.12 26.8318 144.539 26.9454 144.978 26.9454C145.363 26.9454 145.736 26.8933 146.096 26.7877C146.455 26.6822 146.774 26.5339 147.055 26.3409C147.335 26.1479 147.559 25.9027 147.725 25.6049C147.892 25.307 147.976 24.9563 147.976 24.5529V23.712H147.003ZM147.976 27.7075H147.923C147.484 28.3914 146.901 28.8824 146.175 29.1802C145.447 29.4781 144.679 29.6271 143.874 29.6271C143.278 29.6271 142.704 29.5436 142.152 29.3773C141.599 29.211 141.113 28.9612 140.693 28.6279C140.273 28.2953 139.939 27.8831 139.694 27.3929C139.448 26.902 139.326 26.3322 139.326 25.6837C139.326 24.9476 139.461 24.3258 139.732 23.8168C140.005 23.3085 140.373 22.8884 140.838 22.5551C141.302 22.2225 141.832 21.9633 142.428 21.779C143.024 21.5953 143.641 21.4597 144.282 21.3715C144.921 21.284 145.561 21.2319 146.201 21.2146C146.84 21.1965 147.432 21.1879 147.976 21.1879C147.976 20.4872 147.725 19.9302 147.226 19.5187C146.726 19.1066 146.135 18.9009 145.452 18.9009C144.803 18.9009 144.211 19.0365 143.677 19.3077C143.142 19.5795 142.665 19.9522 142.244 20.4251L140.141 18.2697C140.877 17.5857 141.735 17.0734 142.717 16.7315C143.699 16.3895 144.716 16.2185 145.767 16.2185C146.923 16.2185 147.874 16.3634 148.619 16.6527C149.364 16.9419 149.96 17.3673 150.408 17.9277C150.854 18.4894 151.165 19.1767 151.34 19.9916C151.515 20.8065 151.604 21.7496 151.604 22.8176V29.3118H147.976V27.7075Z" fill="white"/>
<path fill-rule="evenodd" clip-rule="evenodd" d="M154.187 16.5344H158.13V18.585H158.182C158.604 17.7968 159.102 17.205 159.682 16.8103C160.259 16.4162 160.987 16.2185 161.864 16.2185C162.091 16.2185 162.319 16.2279 162.548 16.2452C162.774 16.2633 162.984 16.298 163.177 16.3508V19.9522C162.897 19.8647 162.622 19.7992 162.349 19.7552C162.077 19.7118 161.794 19.6897 161.494 19.6897C160.742 19.6897 160.146 19.7946 159.708 20.0043C159.269 20.2154 158.931 20.5086 158.695 20.886C158.459 21.2627 158.305 21.7135 158.235 22.2398C158.165 22.7655 158.13 23.3433 158.13 23.9751V29.3118H154.187V16.5344Z" fill="white"/>
<path d="M174.667 22.9228C174.667 21.9596 174.39 21.1795 173.838 20.583C173.287 19.9872 172.51 19.6893 171.512 19.6893C170.513 19.6893 169.737 19.9872 169.185 20.583C168.633 21.1795 168.357 21.9596 168.357 22.9228C168.357 23.8873 168.633 24.6674 169.185 25.2632C169.737 25.859 170.513 26.1569 171.512 26.1569C172.51 26.1569 173.287 25.859 173.838 25.2632C174.39 24.6674 174.667 23.8873 174.667 22.9228ZM178.295 29.3115H174.667V27.629H174.614C174.457 27.8574 174.25 28.0892 173.996 28.3256C173.742 28.5621 173.444 28.7778 173.102 28.9702C172.76 29.1632 172.384 29.3202 171.971 29.4437C171.559 29.5653 171.135 29.6274 170.697 29.6274C169.75 29.6274 168.892 29.4651 168.12 29.1411C167.348 28.8165 166.688 28.3617 166.135 27.7739C165.583 27.1868 165.158 26.4902 164.86 25.684C164.562 24.8778 164.413 23.9928 164.413 23.0283C164.413 22.134 164.549 21.2797 164.821 20.4648C165.093 19.6499 165.477 18.9272 165.977 18.2961C166.476 17.6649 167.086 17.1613 167.805 16.7845C168.524 16.4072 169.339 16.2188 170.25 16.2188C171.074 16.2188 171.841 16.3464 172.551 16.6002C173.261 16.8547 173.842 17.2882 174.299 17.9013H174.351V9.43604H178.295V29.3115Z" fill="white"/>
</svg>
