<svg width="93" height="24" viewBox="0 0 93 24" fill="none" xmlns="http://www.w3.org/2000/svg">
<g clip-path="url(#clip0_41_92)">
<path d="M51.9568 23.38H56.0618C56.1017 23.3826 56.1417 23.3773 56.1795 23.3642C56.2173 23.3512 56.252 23.3307 56.2818 23.304C56.3111 23.2777 56.3347 23.2456 56.3512 23.2099C56.3677 23.1741 56.3768 23.1354 56.3778 23.096V11.958C56.3778 8.799 57.9578 7.135 60.6838 7.135C63.4108 7.135 64.9618 8.799 64.9618 11.958V23.098C64.9627 23.1578 64.9822 23.2157 65.0177 23.2638C65.0533 23.3119 65.1029 23.3476 65.1598 23.366C65.1977 23.3788 65.2379 23.3839 65.2778 23.381H69.3828C69.4226 23.3838 69.4626 23.3785 69.5004 23.3657C69.5381 23.3528 69.573 23.3325 69.6028 23.306C69.6322 23.2796 69.6559 23.2474 69.6724 23.2114C69.6889 23.1755 69.6979 23.1365 69.6988 23.097V11.987C69.6988 7.22 67.0008 3.046 60.6838 3.046C54.3658 3.046 51.6408 7.22 51.6408 11.986V23.097C51.6415 23.1364 51.6505 23.1753 51.667 23.2111C51.6835 23.2469 51.7073 23.2789 51.7368 23.305C51.7666 23.3315 51.8014 23.3517 51.8392 23.3645C51.8771 23.3772 51.917 23.3821 51.9568 23.379V23.38ZM23.7058 23.634C25.1988 23.634 26.1758 23.464 26.6058 23.295C26.6692 23.2699 26.7244 23.2276 26.765 23.1728C26.8056 23.118 26.8302 23.053 26.8358 22.985V19.655C26.8358 19.457 26.7488 19.345 26.4908 19.345C26.2898 19.345 25.7158 19.457 25.2558 19.457C23.4758 19.457 22.7018 18.809 22.7018 17.286V7.896H26.4918C26.5746 7.89567 26.6541 7.86343 26.7138 7.806C26.7431 7.7773 26.7664 7.74308 26.7823 7.70532C26.7983 7.66755 26.8066 7.627 26.8068 7.586V3.948C26.8059 3.86588 26.7725 3.78748 26.7138 3.73C26.6542 3.6716 26.5743 3.63861 26.4908 3.638H22.5578V0.48C22.5578 0.141 22.4138 0 22.1558 0H18.2798C17.9648 0 17.8208 0.142 17.8208 0.48V17.767C17.8208 21.97 20.2028 23.634 23.7058 23.634ZM7.2278 23.859C11.8508 23.859 15.1528 21.067 15.1528 17.429C15.1528 13.339 12.3958 12.156 8.63581 11.366L6.7688 10.971C5.3628 10.661 4.5868 10.011 4.5868 8.912C4.5868 7.502 6.0228 6.741 8.0038 6.741C10.7888 6.741 12.6838 7.981 12.9698 7.981C13.0491 7.97563 13.1255 7.94927 13.1912 7.90464C13.2569 7.86 13.3096 7.7987 13.3438 7.727L14.0898 4.992C14.2348 4.625 14.2048 4.541 13.9458 4.4C12.2808 3.554 10.5008 3.074 7.9738 3.074C3.2938 3.074 0.0498047 5.725 0.0498047 9.251C0.0498047 12.581 2.6628 14.411 6.3968 15.202L8.2918 15.597C9.8128 15.907 10.6718 16.499 10.6718 17.768C10.6718 19.065 9.6378 20.193 7.1968 20.193C3.7518 20.193 1.3978 18.84 1.0248 18.84C0.794805 18.84 0.708805 18.953 0.622805 19.319L0.134805 21.604C-0.00919531 22.083 0.134805 22.394 0.450805 22.534C1.6288 23.182 4.8438 23.859 7.2278 23.859V23.859ZM38.5498 19.939C35.5348 19.939 32.7798 17.711 32.7798 13.509C32.7798 9.307 35.5358 7.132 38.5498 7.132C41.5928 7.132 44.2918 9.304 44.2918 13.509C44.2918 17.739 41.5918 19.939 38.5498 19.939ZM38.5498 24C44.5788 24 48.9698 19.573 48.9698 13.509C48.9698 7.445 44.5788 3.046 38.5498 3.046C32.5498 3.046 28.1278 7.446 28.1278 13.509C28.1278 19.572 32.5488 24 38.5498 24ZM92.0498 13.283C92.0498 7.049 88.4028 3.046 82.6018 3.046C77.1468 3.046 72.4388 7.164 72.4388 13.424C72.4388 20.108 77.2618 24 82.4288 24C86.7648 24 89.2658 22.322 90.8128 20.278C91.1128 19.882 91.1728 19.711 91.1728 19.6C91.1728 19.49 91.1018 19.403 90.8408 19.175L89.0318 17.625C88.5998 17.258 88.4548 17.145 88.3118 17.145C88.1668 17.145 88.0808 17.23 87.9658 17.371C86.7318 19.007 85.0088 19.937 82.6838 19.937C79.7508 19.937 77.7958 17.979 77.2998 14.804H90.5478C91.4718 14.806 92.0498 14.52 92.0498 13.284V13.283ZM82.4318 6.966C85.5648 6.966 87.2218 9.042 87.3118 11.337H77.3698C77.9148 8.873 79.6168 6.966 82.4318 6.966V6.966Z" fill="white"/>
</g>
<defs>
<clipPath id="clip0_41_92">
<rect width="92" height="24" fill="white" transform="translate(0.0498047)"/>
</clipPath>
</defs>
</svg>
