<svg width="176" height="40" viewBox="0 0 176 40" fill="none" xmlns="http://www.w3.org/2000/svg">
<g clip-path="url(#clip0_41_105)">
<path fill-rule="evenodd" clip-rule="evenodd" d="M19.798 0.181396C15.9985 0.181396 12.4477 1.25114 9.43555 3.10009L10.8468 4.4555C13.478 2.9355 16.5365 2.06305 19.798 2.06305C29.6086 2.06305 37.5901 9.94995 37.5901 19.6444C37.5901 23.7934 36.1274 27.6105 33.6858 30.6208C34.1594 31.0237 34.6405 31.434 35.1274 31.8504C37.857 28.5094 39.4943 24.2626 39.4943 19.6444C39.4943 8.91259 30.6585 0.181396 19.798 0.181396Z" fill="white"/>
<path fill-rule="evenodd" clip-rule="evenodd" d="M7.28834 7.06648L6.01967 5.81738C5.81139 6.02197 5.60816 6.23143 5.40967 6.44546L6.67985 7.69605C6.87723 7.48103 7.07996 7.27097 7.28834 7.06648Z" fill="white"/>
<path fill-rule="evenodd" clip-rule="evenodd" d="M5.67799 9.37239L4.3132 7.96436C4.13678 8.20404 3.96563 8.44782 3.79932 8.6956L5.17679 10.1114C5.33816 9.86074 5.50522 9.61429 5.67799 9.37239Z" fill="white"/>
<path fill-rule="evenodd" clip-rule="evenodd" d="M9.16724 5.55895L7.91516 4.20703C7.70267 4.38091 7.49355 4.55947 7.28857 4.74314L8.5368 6.0857C8.74286 5.9048 8.95307 5.72922 9.16724 5.55895Z" fill="white"/>
<path fill-rule="evenodd" clip-rule="evenodd" d="M20.0384 37.4794C10.212 37.4794 2.2178 29.5756 2.2178 19.8608C2.2178 16.9568 2.93262 14.2148 4.19661 11.7972L2.80367 10.3799C1.21676 13.1884 0.310547 16.4217 0.310547 19.8608C0.310547 30.6155 9.16043 39.3651 20.0384 39.3651C24.4028 39.3651 28.4402 37.9556 31.7112 35.5742C31.2879 35.0904 30.8709 34.6127 30.4615 34.1423C27.5286 36.2406 23.9273 37.4794 20.0384 37.4794Z" fill="white"/>
<path fill-rule="evenodd" clip-rule="evenodd" d="M9.43555 10.7677L12.5538 13.8689L12.8734 13.5511L13.1929 13.2333L10.0541 10.1116C9.84064 10.3233 9.63453 10.5422 9.43555 10.7677Z" fill="white"/>
<path fill-rule="evenodd" clip-rule="evenodd" d="M33.8583 19.8594C33.8583 12.2524 27.6553 6.08569 20.0036 6.08569C17.8519 6.08569 15.8148 6.57325 13.998 7.44324L20.6283 13.8486C20.6283 13.8486 20.6779 14.3572 20.2654 15.161C20.2654 15.161 18.8776 18.2268 21.3048 20.3611C21.3048 20.3611 25.3121 23.6234 30.9045 28.3613C32.7547 26.0201 33.8583 23.0677 33.8583 19.8594Z" fill="white"/>
<path fill-rule="evenodd" clip-rule="evenodd" d="M8.28101 11.9902C8.12155 12.2365 7.96979 12.4886 7.8252 12.7453L10.7281 15.7476L11.3142 15.139L8.28101 11.9902Z" fill="white"/>
<path fill-rule="evenodd" clip-rule="evenodd" d="M11.5825 8.74718L14.7477 11.9902L15.3399 11.3834L12.2766 8.23291C12.0397 8.39688 11.8087 8.56892 11.5825 8.74718Z" fill="white"/>
<path fill-rule="evenodd" clip-rule="evenodd" d="M5.94678 19.7547C5.94678 27.3243 12.1616 33.4608 19.8279 33.4608C22.7449 33.4608 25.4513 32.5716 27.6857 31.0537C22.9578 25.5742 19.7099 21.6577 19.7099 21.6577C17.559 19.2563 14.4694 20.6293 14.4694 20.6293C13.6593 21.0374 13.1468 20.9885 13.1468 20.9885L6.93236 14.6741C6.29688 16.2452 5.94678 17.9596 5.94678 19.7547Z" fill="white"/>
<path fill-rule="evenodd" clip-rule="evenodd" d="M70.8293 11.1433L65.3651 28.9684H62.7916L58.6691 16.169C58.6203 16.0287 58.5735 15.8761 58.5288 15.711C58.4841 15.546 58.4414 15.3685 58.4007 15.1787C58.3601 15.3685 58.3174 15.546 58.2727 15.711C58.2279 15.8761 58.1812 16.0287 58.1324 16.169L53.9733 28.9684H51.3997L45.9355 11.1433H48.3261C48.5701 11.1433 48.7754 11.2032 48.9421 11.3228C49.1088 11.4425 49.2206 11.6055 49.2775 11.8118L52.5706 23.2372C52.6357 23.4848 52.6967 23.753 52.7536 24.0418C52.8105 24.3306 52.8674 24.6318 52.9243 24.9454C52.9813 24.6318 53.0443 24.3286 53.1134 24.0356C53.1825 23.7426 53.2577 23.4765 53.339 23.2372L57.1079 11.8118C57.1648 11.6467 57.2786 11.4941 57.4494 11.3538C57.6201 11.2135 57.8234 11.1433 58.0592 11.1433H58.8886C59.1407 11.1433 59.3439 11.2073 59.4984 11.3352C59.6529 11.4631 59.7708 11.622 59.8521 11.8118L63.6088 23.2372C63.6901 23.4765 63.7653 23.7344 63.8344 24.0108C63.9035 24.2873 63.9666 24.5782 64.0235 24.8835C64.0804 24.5782 64.1353 24.2873 64.1881 24.0108C64.241 23.7344 64.2999 23.4765 64.365 23.2372L67.6459 11.8118C67.6947 11.6302 67.8065 11.4734 67.9813 11.3414C68.1562 11.2094 68.3615 11.1433 68.5973 11.1433H70.8293ZM75.3299 17.8401C75.8422 17.3285 76.4033 16.9179 77.0131 16.6085C77.623 16.299 78.3344 16.1443 79.1476 16.1443C79.8306 16.1443 80.4303 16.2598 80.9466 16.4909C81.4629 16.7219 81.8979 17.0479 82.2517 17.4688C82.6054 17.8896 82.8717 18.3951 83.0505 18.9851C83.2294 19.5752 83.3189 20.2251 83.3189 20.9348V28.9684H80.7087V20.9348C80.7087 20.0848 80.5156 19.4246 80.1294 18.9542C79.7432 18.4838 79.1557 18.2486 78.367 18.2486C77.7815 18.2486 77.2388 18.3848 76.7387 18.6571C76.2386 18.9294 75.769 19.3008 75.3299 19.7712V28.9684H72.7076V10.6482H75.3299V17.8401ZM93.0398 23.4476C92.1047 23.4806 91.3159 23.557 90.6736 23.6766C90.0312 23.7963 89.5108 23.9489 89.1124 24.1346C88.7139 24.3203 88.4273 24.5411 88.2525 24.7969C88.0777 25.0527 87.9903 25.3333 87.9903 25.6386C87.9903 25.9357 88.037 26.1895 88.1305 26.3999C88.224 26.6103 88.3541 26.7836 88.5208 26.9198C88.6875 27.056 88.8827 27.155 89.1063 27.2169C89.3299 27.2788 89.5759 27.3097 89.8442 27.3097C90.5272 27.3097 91.1147 27.1798 91.6066 26.9198C92.0986 26.6598 92.5763 26.2823 93.0398 25.7872V23.4476ZM86.0876 18.1001C87.4943 16.7714 89.1693 16.1071 91.1127 16.1071C91.8282 16.1071 92.4645 16.2247 93.0215 16.4599C93.5785 16.6951 94.046 17.0273 94.4241 17.4564C94.8022 17.8855 95.0909 18.3951 95.2901 18.9851C95.4893 19.5752 95.5889 20.2292 95.5889 20.9471V28.9684H94.418C94.1659 28.9684 93.9749 28.9293 93.8448 28.8509C93.7147 28.7725 93.6049 28.6136 93.5154 28.3743L93.2593 27.3469C92.9422 27.6357 92.6291 27.8936 92.3201 28.1205C92.0112 28.3475 91.692 28.5393 91.3627 28.6961C91.0334 28.8529 90.6797 28.9705 90.3016 29.0489C89.9235 29.1273 89.5067 29.1665 89.0514 29.1665C88.5473 29.1665 88.0777 29.0964 87.6427 28.9561C87.2076 28.8158 86.8316 28.6033 86.5144 28.3186C86.1973 28.0339 85.9473 27.6811 85.7643 27.2602C85.5814 26.8393 85.4899 26.3442 85.4899 25.7748C85.4899 25.2879 85.618 24.8134 85.8741 24.3513C86.1302 23.8891 86.5531 23.4744 87.1426 23.1072C87.7321 22.74 88.5086 22.4367 89.4722 22.1974C90.4357 21.9581 91.6249 21.8219 93.0398 21.7889V20.9471C93.0398 20.0394 92.8487 19.3627 92.4665 18.9171C92.0843 18.4714 91.5233 18.2486 90.7833 18.2486C90.2792 18.2486 89.8564 18.3126 89.5149 18.4405C89.1734 18.5684 88.8766 18.7066 88.6245 18.8552C88.3724 19.0037 88.1488 19.1419 87.9537 19.2699C87.7585 19.3978 87.5512 19.4617 87.3316 19.4617C87.1527 19.4617 87.0003 19.4143 86.8743 19.3194C86.7482 19.2245 86.6445 19.1069 86.5632 18.9666L86.0876 18.1001ZM102.419 29.1665C101.386 29.1665 100.592 28.8715 100.035 28.2814C99.4777 27.6914 99.1992 26.86 99.1992 25.7872V18.4343H97.8331C97.6868 18.4343 97.5607 18.3869 97.455 18.2919C97.3493 18.197 97.2965 18.0547 97.2965 17.8649V16.788L99.3089 16.4909L99.8822 12.8392C99.9228 12.6989 99.992 12.5854 100.09 12.4988C100.187 12.4121 100.317 12.3688 100.48 12.3688H101.821V16.5156H105.273V18.4343H101.821V25.6015C101.821 26.0554 101.931 26.402 102.151 26.6413C102.37 26.8806 102.663 27.0003 103.029 27.0003C103.232 27.0003 103.407 26.9734 103.553 26.9198C103.7 26.8662 103.826 26.8084 103.932 26.7465C104.037 26.6846 104.129 26.6268 104.206 26.5732C104.283 26.5196 104.358 26.4927 104.432 26.4927C104.578 26.4927 104.696 26.5753 104.785 26.7403L105.566 28.0401C105.159 28.4032 104.68 28.6817 104.127 28.8756C103.574 29.0695 103.005 29.1665 102.419 29.1665ZM115.262 18.6324C115.197 18.7479 115.124 18.8304 115.043 18.8799C114.962 18.9294 114.86 18.9542 114.738 18.9542C114.6 18.9542 114.449 18.9109 114.287 18.8242C114.124 18.7376 113.933 18.6406 113.713 18.5333C113.494 18.4261 113.236 18.3291 112.939 18.2424C112.642 18.1558 112.295 18.1125 111.896 18.1125C111.571 18.1125 111.276 18.1517 111.012 18.2301C110.748 18.3085 110.524 18.4199 110.341 18.5643C110.158 18.7087 110.018 18.8779 109.92 19.0718C109.823 19.2657 109.774 19.4741 109.774 19.6969C109.774 19.994 109.863 20.2416 110.042 20.4396C110.221 20.6377 110.457 20.8089 110.75 20.9533C111.042 21.0978 111.376 21.2277 111.75 21.3433C112.124 21.4588 112.506 21.5826 112.896 21.7146C113.287 21.8467 113.669 21.9993 114.043 22.1726C114.417 22.3459 114.75 22.5584 115.043 22.8101C115.336 23.0618 115.571 23.3672 115.75 23.7261C115.929 24.0851 116.019 24.5204 116.019 25.0321C116.019 25.6262 115.913 26.175 115.702 26.6784C115.49 27.1818 115.181 27.6192 114.775 27.9905C114.368 28.3619 113.862 28.6507 113.256 28.857C112.65 29.0634 111.957 29.1665 111.176 29.1665C110.746 29.1665 110.329 29.1273 109.926 29.0489C109.524 28.9705 109.142 28.8632 108.78 28.7271C108.418 28.5909 108.081 28.4279 107.767 28.2381C107.454 28.0483 107.176 27.842 106.932 27.6192L107.542 26.6041C107.615 26.4804 107.706 26.3834 107.816 26.3133C107.926 26.2431 108.062 26.208 108.225 26.208C108.396 26.208 108.564 26.2637 108.731 26.3751C108.898 26.4865 109.093 26.6083 109.316 26.7403C109.54 26.8723 109.81 26.9941 110.128 27.1055C110.445 27.2169 110.839 27.2726 111.311 27.2726C111.701 27.2726 112.038 27.2251 112.323 27.1302C112.608 27.0353 112.843 26.9054 113.03 26.7403C113.217 26.5753 113.356 26.3875 113.445 26.1771C113.535 25.9667 113.579 25.7418 113.579 25.5025C113.579 25.1806 113.49 24.9165 113.311 24.7102C113.132 24.5039 112.894 24.3265 112.597 24.178C112.301 24.0294 111.963 23.8974 111.585 23.7818C111.207 23.6663 110.823 23.5425 110.432 23.4105C110.042 23.2784 109.658 23.1258 109.28 22.9525C108.902 22.7792 108.564 22.5584 108.268 22.2902C107.971 22.022 107.733 21.6961 107.554 21.3123C107.375 20.9286 107.286 20.4603 107.286 19.9073C107.286 19.404 107.385 18.9253 107.584 18.4714C107.784 18.0176 108.076 17.6173 108.463 17.2707C108.849 16.9241 109.325 16.6497 109.89 16.4475C110.455 16.2454 111.107 16.1443 111.847 16.1443C112.685 16.1443 113.445 16.2804 114.128 16.5528C114.811 16.8251 115.384 17.1964 115.848 17.6668L115.262 18.6324ZM133.716 20.1921V27.2478C131.968 28.527 129.935 29.1665 127.618 29.1665C126.195 29.1665 124.908 28.9416 123.758 28.4919C122.607 28.0421 121.625 27.4149 120.812 26.6103C119.999 25.8057 119.373 24.8464 118.934 23.7323C118.495 22.6182 118.275 21.3928 118.275 20.0559C118.275 18.7107 118.486 17.4791 118.909 16.3609C119.332 15.2427 119.938 14.2813 120.727 13.4767C121.515 12.6721 122.467 12.049 123.581 11.6075C124.695 11.166 125.947 10.9453 127.337 10.9453C128.045 10.9453 128.701 11.001 129.307 11.1124C129.913 11.2238 130.476 11.3785 130.996 11.5766C131.517 11.7746 131.996 12.014 132.436 12.2945C132.875 12.5751 133.277 12.8887 133.643 13.2353L132.826 14.5598C132.696 14.7661 132.529 14.894 132.326 14.9436C132.123 14.9931 131.903 14.9436 131.667 14.795C131.431 14.6547 131.181 14.5062 130.917 14.3494C130.653 14.1926 130.35 14.0461 130.008 13.9099C129.667 13.7738 129.273 13.6624 128.825 13.5757C128.378 13.4891 127.85 13.4457 127.24 13.4457C126.313 13.4457 125.477 13.6005 124.733 13.9099C123.989 14.2194 123.353 14.6609 122.824 15.2344C122.296 15.808 121.889 16.5032 121.605 17.3202C121.32 18.1372 121.178 19.0491 121.178 20.0559C121.178 21.1205 121.328 22.0715 121.629 22.9091C121.93 23.7468 122.357 24.4565 122.91 25.0383C123.463 25.6201 124.132 26.0636 124.916 26.369C125.701 26.6743 126.577 26.827 127.545 26.827C128.268 26.827 128.913 26.7486 129.478 26.5918C130.043 26.435 130.598 26.2163 131.143 25.9357V22.3954H128.691C128.504 22.3954 128.358 22.3439 128.252 22.2407C128.146 22.1376 128.093 22.0035 128.093 21.8384V20.1921H133.716ZM141.986 16.1443C142.905 16.1443 143.736 16.2969 144.48 16.6023C145.224 16.9076 145.858 17.3409 146.383 17.902C146.907 18.4632 147.312 19.144 147.596 19.9445C147.881 20.745 148.023 21.6445 148.023 22.643C148.023 23.6416 147.881 24.5411 147.596 25.3415C147.312 26.142 146.907 26.8249 146.383 27.3902C145.858 27.9555 145.224 28.3908 144.48 28.6961C143.736 29.0015 142.905 29.1541 141.986 29.1541C141.059 29.1541 140.223 29.0015 139.479 28.6961C138.735 28.3908 138.099 27.9555 137.57 27.3902C137.042 26.8249 136.635 26.142 136.351 25.3415C136.066 24.5411 135.924 23.6416 135.924 22.643C135.924 21.6445 136.066 20.745 136.351 19.9445C136.635 19.144 137.042 18.4632 137.57 17.902C138.099 17.3409 138.735 16.9076 139.479 16.6023C140.223 16.2969 141.059 16.1443 141.986 16.1443ZM141.986 27.0745C143.108 27.0745 143.943 26.6929 144.492 25.9295C145.041 25.1662 145.315 24.0748 145.315 22.6554C145.315 21.236 145.041 20.1405 144.492 19.3689C143.943 18.5973 143.108 18.2115 141.986 18.2115C140.847 18.2115 140.002 18.5973 139.449 19.3689C138.896 20.1405 138.619 21.236 138.619 22.6554C138.619 24.0748 138.896 25.1662 139.449 25.9295C140.002 26.6929 140.847 27.0745 141.986 27.0745ZM155.914 16.1443C156.833 16.1443 157.665 16.2969 158.409 16.6023C159.153 16.9076 159.787 17.3409 160.311 17.902C160.836 18.4632 161.24 19.144 161.525 19.9445C161.81 20.745 161.952 21.6445 161.952 22.643C161.952 23.6416 161.81 24.5411 161.525 25.3415C161.24 26.142 160.836 26.8249 160.311 27.3902C159.787 27.9555 159.153 28.3908 158.409 28.6961C157.665 29.0015 156.833 29.1541 155.914 29.1541C154.988 29.1541 154.152 29.0015 153.408 28.6961C152.664 28.3908 152.028 27.9555 151.499 27.3902C150.971 26.8249 150.564 26.142 150.28 25.3415C149.995 24.5411 149.853 23.6416 149.853 22.643C149.853 21.6445 149.995 20.745 150.28 19.9445C150.564 19.144 150.971 18.4632 151.499 17.902C152.028 17.3409 152.664 16.9076 153.408 16.6023C154.152 16.2969 154.988 16.1443 155.914 16.1443ZM155.914 27.0745C157.037 27.0745 157.872 26.6929 158.421 25.9295C158.97 25.1662 159.244 24.0748 159.244 22.6554C159.244 21.236 158.97 20.1405 158.421 19.3689C157.872 18.5973 157.037 18.2115 155.914 18.2115C154.776 18.2115 153.93 18.5973 153.378 19.3689C152.825 20.1405 152.548 21.236 152.548 22.6554C152.548 24.0748 152.825 25.1662 153.378 25.9295C153.93 26.6929 154.776 27.0745 155.914 27.0745ZM172.405 19.4493C172.039 18.9707 171.636 18.6365 171.197 18.4467C170.758 18.2569 170.282 18.162 169.77 18.162C168.746 18.162 167.945 18.5436 167.367 19.307C166.79 20.0703 166.501 21.1988 166.501 22.6925C166.501 23.4683 166.566 24.1305 166.697 24.6793C166.827 25.2281 167.014 25.6758 167.258 26.0224C167.501 26.369 167.798 26.6206 168.148 26.7774C168.498 26.9342 168.892 27.0126 169.331 27.0126C169.998 27.0126 170.573 26.8662 171.057 26.5732C171.541 26.2802 171.99 25.8656 172.405 25.3292V19.4493ZM175.027 10.6482V28.9684H173.441C173.092 28.9684 172.868 28.7993 172.771 28.4609L172.539 27.0869C172.018 27.7058 171.427 28.2051 170.764 28.5847C170.101 28.9643 169.331 29.1541 168.453 29.1541C167.754 29.1541 167.119 29.0118 166.55 28.7271C165.981 28.4424 165.493 28.0277 165.087 27.483C164.68 26.9384 164.365 26.2637 164.141 25.4591C163.918 24.6545 163.806 23.7323 163.806 22.6925C163.806 21.7517 163.93 20.8811 164.178 20.0807C164.426 19.2802 164.782 18.5849 165.245 17.9949C165.709 17.4048 166.272 16.9427 166.934 16.6085C167.597 16.2742 168.339 16.1071 169.16 16.1071C169.892 16.1071 170.514 16.2247 171.026 16.4599C171.539 16.6951 171.998 17.0231 172.405 17.444V10.6482H175.027Z" fill="white"/>
</g>
<defs>
<clipPath id="clip0_41_105">
<rect width="175.51" height="40" fill="white" transform="translate(0.310547)"/>
</clipPath>
</defs>
</svg>
