<svg width="21" height="20" viewBox="0 0 21 20" fill="none" xmlns="http://www.w3.org/2000/svg">
<path d="M10.9762 20C5.45339 20 0.976242 15.5228 0.976242 10C0.976242 4.47715 5.45339 0 10.9762 0C16.4991 0 20.9762 4.47715 20.9762 10C20.9702 15.5203 16.4966 19.9939 10.9762 20ZM6.09624 16.545L6.09124 16.555C8.37429 18.2653 11.3855 18.6571 14.0302 17.588C13.6512 15.5493 13.0892 13.5489 12.3512 11.611C10.6562 12.202 9.10645 13.1473 7.80524 14.384C7.16397 14.9912 6.60882 15.6833 6.15524 16.441L6.14824 16.452V16.442L6.13024 16.477L6.11824 16.497L6.11124 16.51L6.09424 16.546L6.09624 16.545ZM15.7552 11.045C15.2629 11.0457 14.7712 11.0791 14.2832 11.145C14.9204 12.9255 15.4219 14.7517 15.7832 16.608C17.4827 15.383 18.6377 13.5438 19.0032 11.481C17.9453 11.1891 16.8527 11.0414 15.7552 11.042V11.045ZM2.79324 9.955V10.011C2.79507 11.9376 3.47677 13.8017 4.71824 15.275C6.32652 12.7905 8.70551 10.9023 11.4902 9.9L11.6092 9.866C11.4322 9.475 11.2662 9.126 11.1002 8.8C8.43217 9.54809 5.67615 9.93653 2.90524 9.955H2.79324ZM15.4422 9.349C16.6831 9.35357 17.9211 9.46667 19.1422 9.687C19.0786 7.99541 18.4869 6.3662 17.4502 5.028C16.2405 6.38093 14.7347 7.43634 13.0502 8.112L13.0792 8.1L13.0482 8.113C13.2272 8.486 13.3842 8.835 13.5152 9.146C13.5462 9.22 13.5722 9.284 13.5962 9.346L13.6372 9.446C14.2366 9.3795 14.8392 9.34711 15.4422 9.349ZM7.35324 2.677C5.17855 3.75037 3.59243 5.73358 3.02324 8.091C5.35362 8.05499 7.67281 7.76053 9.93824 7.213H9.95124H9.96624L9.97624 7.2L10.0302 7.187H10.0362L10.0762 7.179H10.0852H10.0922L10.1132 7.173L10.1532 7.163L10.1762 7.153L10.1982 7.147H10.2082H10.2182C8.88524 4.8 7.50524 2.887 7.35224 2.677H7.35324ZM10.9762 1.83897C10.4288 1.83762 9.88259 1.88953 9.34524 1.994C10.3929 3.44558 11.3542 4.95753 12.2242 6.522C13.7824 5.96705 15.172 5.02157 16.2602 3.776C14.7829 2.5266 12.9111 1.84041 10.9762 1.83897Z" fill="white"/>
</svg>
