<svg width="15" height="20" viewBox="0 0 15 20" fill="none" xmlns="http://www.w3.org/2000/svg">
<path d="M4.91583 20.0004C3.25092 20.0133 1.75954 18.9729 1.19684 17.4059C0.634143 15.8389 1.12298 14.0874 2.41583 13.0383C1.49883 12.2961 0.966061 11.1795 0.966061 9.99976C0.966061 8.82005 1.49883 7.70344 2.41583 6.96126C1.12257 5.9125 0.633436 4.16089 1.19624 2.59382C1.75904 1.02676 3.25082 -0.0134173 4.91583 0.000130785H11.0258C12.6908 -0.0134173 14.1826 1.02676 14.7454 2.59382C15.3082 4.16089 14.8191 5.9125 13.5258 6.96126C14.8187 8.01038 15.3075 9.76186 14.7448 11.3289C14.1821 12.8959 12.6907 13.9363 11.0258 13.9233C10.2568 13.9242 9.50431 13.7004 8.86083 13.2793V16.0793C8.85147 18.2503 7.08684 20.0041 4.91583 20.0004ZM4.89383 13.9243C3.70937 13.943 2.76253 14.915 2.77495 16.0996C2.78737 17.2841 3.75439 18.2361 4.93899 18.23C6.12358 18.2238 7.08069 17.2619 7.08083 16.0773V13.9243H4.89283H4.89383ZM11.0268 7.84726C9.83922 7.85333 8.88081 8.81993 8.88483 10.0076C8.88889 11.1952 9.85385 12.1552 11.0415 12.1532C12.2291 12.1512 13.1908 11.1879 13.1908 10.0003C13.1864 8.80834 12.2178 7.84505 11.0258 7.84726H11.0268ZM4.91683 7.84723C4.14764 7.84316 3.43469 8.24972 3.04653 8.91381C2.65838 9.57789 2.65399 10.3986 3.03503 11.0668C3.41607 11.735 4.12464 12.1492 4.89383 12.1533H7.08083V7.84723H4.91683ZM8.86083 1.77026V6.07729H11.0248C12.1823 6.08266 13.1374 5.17268 13.1878 4.01626V4.45126V3.92326C13.1829 2.73274 12.2164 1.77026 11.0258 1.77026H8.86083ZM4.91483 1.77026C4.14564 1.77026 3.43488 2.18062 3.05028 2.84676C2.66568 3.5129 2.66568 4.33362 3.05028 4.99976C3.43488 5.6659 4.14564 6.07626 4.91483 6.07626H7.08083V1.77026H4.91483Z" fill="white"/>
</svg>
