<svg width="20" height="20" viewBox="0 0 20 20" fill="none" xmlns="http://www.w3.org/2000/svg">
<path d="M9.98723 2.64914e-07C5.09416 -0.000628249 0.923043 3.54799 0.139627 8.37793C-0.643788 13.2079 2.19182 17.893 6.83423 19.439C7.33423 19.529 7.51323 19.222 7.51323 18.958C7.51323 18.721 7.50523 18.093 7.50223 17.258C4.72723 17.858 4.14123 15.92 4.14123 15.92C3.95854 15.317 3.56581 14.7993 3.03423 14.461C2.13423 13.842 3.10323 13.856 3.10323 13.856C3.74391 13.9438 4.30778 14.3235 4.63023 14.884C4.90316 15.3803 5.36299 15.747 5.90753 15.9026C6.45208 16.0583 7.03624 15.99 7.53023 15.713C7.57665 15.207 7.80177 14.7341 8.16523 14.379C5.95123 14.128 3.62323 13.272 3.62323 9.449C3.61094 8.4602 3.97813 7.5043 4.64923 6.778C4.34558 5.91731 4.38134 4.97325 4.74923 4.138C4.74923 4.138 5.58623 3.869 7.49123 5.159C9.12508 4.71101 10.8494 4.71101 12.4832 5.159C14.3892 3.868 15.2252 4.138 15.2252 4.138C15.5948 4.97286 15.6306 5.91757 15.3252 6.778C15.9988 7.50423 16.3657 8.46264 16.3492 9.453C16.3492 13.286 14.0192 14.128 11.7972 14.375C12.2766 14.8651 12.5224 15.5373 12.4722 16.221C12.4722 17.555 12.4602 18.631 12.4602 18.958C12.4602 19.225 12.6382 19.535 13.1472 19.437C17.7877 17.8884 20.6203 13.203 19.8352 8.37432C19.0502 3.54565 14.8793 -0.00111917 9.98723 2.64914e-07Z" fill="white"/>
</svg>
