<svg width="19" height="19" viewBox="0 0 19 19" fill="none" xmlns="http://www.w3.org/2000/svg">
<path d="M9.00004 18.036C6.54004 18.036 6.25004 18.023 5.29004 17.981C4.54141 17.9564 3.80247 17.8042 3.10504 17.531C1.89835 17.0614 0.944179 16.1069 0.475038 14.9C0.212344 14.2 0.070656 13.4605 0.0560381 12.713C3.8147e-05 11.755 3.8147e-05 11.441 3.8147e-05 9C3.8147e-05 6.533 0.0130381 6.245 0.0560381 5.29C0.0709758 4.54352 0.212659 3.80501 0.475038 3.106C0.943669 1.89753 1.89939 0.942172 3.10804 0.474C3.80668 0.210202 4.54538 0.0681443 5.29204 0.054C6.24704 0 6.56104 0 9.00004 0C11.48 0 11.765 0.013 12.71 0.054C13.4586 0.0682666 14.1993 0.21031 14.9 0.474C16.1083 0.942703 17.0639 1.89788 17.533 3.106C17.8002 3.81519 17.9426 4.56525 17.954 5.323C18.01 6.281 18.01 6.594 18.01 9.034C18.01 11.474 17.996 11.794 17.954 12.741C17.9392 13.4892 17.7971 14.2294 17.534 14.93C17.0637 16.1377 16.1081 17.0926 14.9 17.562C14.2003 17.8242 13.4611 17.9659 12.714 17.981C11.759 18.036 11.446 18.036 9.00004 18.036ZM8.96604 1.583C6.52004 1.583 6.26604 1.595 5.31104 1.638C4.74102 1.64555 4.17652 1.75074 3.64204 1.949C2.85279 2.25101 2.22826 2.87299 1.92304 3.661C1.72325 4.2013 1.61805 4.77198 1.61204 5.348C1.55904 6.317 1.55904 6.571 1.55904 9C1.55904 11.4 1.56804 11.691 1.61204 12.654C1.62099 13.2242 1.72613 13.7888 1.92304 14.324C2.22871 15.1115 2.85313 15.733 3.64204 16.035C4.17615 16.2346 4.74089 16.3398 5.31104 16.346C6.27904 16.402 6.53404 16.402 8.96604 16.402C11.419 16.402 11.673 16.39 12.62 16.346C13.1904 16.3391 13.7554 16.2339 14.29 16.035C15.0745 15.7304 15.695 15.1103 16 14.326C16.1994 13.7852 16.3046 13.2143 16.311 12.638H16.322C16.365 11.682 16.365 11.427 16.365 8.984C16.365 6.541 16.354 6.284 16.311 5.329C16.3021 4.75945 16.1969 4.19551 16 3.661C15.6957 2.87557 15.0751 2.25429 14.29 1.949C13.7555 1.74974 13.1905 1.64452 12.62 1.638C11.653 1.583 11.4 1.583 8.96604 1.583ZM9.00004 13.619C7.13003 13.6202 5.44346 12.4947 4.7269 10.7675C4.01034 9.04018 4.40494 7.05133 5.72667 5.72846C7.04839 4.40559 9.0369 4.00927 10.7648 4.72433C12.4927 5.43939 13.6196 7.12499 13.62 8.995C13.6173 11.5461 11.5511 13.614 9.00004 13.619ZM9.00004 5.993C7.34318 5.993 6.00004 7.33615 6.00004 8.993C6.00004 10.6499 7.34318 11.993 9.00004 11.993C10.6569 11.993 12 10.6499 12 8.993C11.9962 7.33774 10.6553 5.99685 9.00004 5.993ZM13.8 5.28C13.2055 5.27779 12.7249 4.79459 12.726 4.20001C12.7271 3.60543 13.2095 3.12401 13.804 3.12401C14.3986 3.12401 14.8809 3.60542 14.882 4.2C14.8823 4.48686 14.7683 4.76202 14.5653 4.96468C14.3623 5.16733 14.0869 5.2808 13.8 5.28Z" fill="white"/>
</svg>
