<svg width="756" height="618" viewBox="0 0 756 618" fill="none" xmlns="http://www.w3.org/2000/svg">
<g filter="url(#filter0_d_41_200)">
<mask id="mask0_41_200" style="mask-type:alpha" maskUnits="userSpaceOnUse" x="121" y="83" width="465" height="189">
<path d="M550.526 83.5545L137.606 144.334C127.052 145.888 119.756 155.708 121.31 166.268L134.367 254.975C135.922 265.536 145.738 272.837 156.293 271.283L569.212 210.503C579.767 208.95 587.063 199.13 585.508 188.57L572.451 99.8622C570.897 89.3021 561.08 82.0009 550.526 83.5545Z" fill="white"/>
</mask>
<g mask="url(#mask0_41_200)">
<path d="M550.526 83.5545L137.606 144.334C127.052 145.888 119.756 155.708 121.31 166.268L134.367 254.975C135.922 265.536 145.738 272.837 156.293 271.283L569.212 210.503C579.767 208.95 587.063 199.13 585.508 188.57L572.451 99.8622C570.897 89.3021 561.08 82.0009 550.526 83.5545Z" fill="#DC9BE4"/>
<path d="M550.526 83.5545L137.606 144.334C127.052 145.888 119.756 155.708 121.31 166.268L134.367 254.975C135.922 265.536 145.738 272.837 156.293 271.283L569.212 210.503C579.767 208.95 587.063 199.13 585.508 188.57L572.451 99.8622C570.897 89.3021 561.08 82.0009 550.526 83.5545Z" fill="white" fill-opacity="0.9"/>
<path fill-rule="evenodd" clip-rule="evenodd" d="M540.67 141.296C540.075 142.054 540.232 143.116 541.02 143.67L548.415 148.876L542.833 155.991C542.238 156.75 542.395 157.811 543.183 158.366C543.971 158.921 545.089 158.756 545.684 157.998L552.342 149.511C552.937 148.752 552.781 147.691 551.993 147.136L543.172 140.927C542.779 140.651 542.301 140.553 541.849 140.619C541.396 140.686 540.967 140.917 540.67 141.296Z" fill="#E3D1E1"/>
<path d="M208.367 160.579L154.23 168.548C149.247 169.282 145.802 173.918 146.536 178.904L154.509 233.069C155.243 238.054 159.877 241.501 164.86 240.768L218.997 232.799C223.98 232.066 227.425 227.429 226.691 222.444L218.718 168.279C217.984 163.293 213.35 159.846 208.367 160.579Z" fill="#F498E0" fill-opacity="0.16"/>
</g>
<rect x="241.073" y="167.294" width="218.139" height="17.1089" rx="6.76486" transform="rotate(-8.37353 241.073 167.294)" fill="#F498E0" fill-opacity="0.16"/>
<rect x="245.744" y="199.031" width="133.307" height="17.1089" rx="6.76486" transform="rotate(-8.37353 245.744 199.031)" fill="#F498E0" fill-opacity="0.08"/>
</g>
<g filter="url(#filter1_d_41_200)">
<mask id="mask1_41_200" style="mask-type:alpha" maskUnits="userSpaceOnUse" x="159" y="341" width="465" height="189">
<path d="M588.528 341.729L175.609 402.509C165.054 404.063 157.758 413.883 159.313 424.443L172.37 513.15C173.924 523.71 183.741 531.012 194.295 529.458L607.214 468.678C617.769 467.125 625.065 457.305 623.511 446.745L610.453 358.037C608.899 347.477 599.083 340.176 588.528 341.729Z" fill="white"/>
</mask>
<g mask="url(#mask1_41_200)">
<path d="M588.528 341.729L175.609 402.509C165.054 404.063 157.758 413.883 159.313 424.443L172.37 513.15C173.924 523.71 183.741 531.012 194.295 529.458L607.214 468.678C617.769 467.125 625.065 457.305 623.511 446.745L610.453 358.037C608.899 347.477 599.083 340.176 588.528 341.729Z" fill="#DC9BE4"/>
<path d="M588.528 341.729L175.609 402.509C165.054 404.063 157.758 413.883 159.313 424.443L172.37 513.15C173.924 523.71 183.741 531.012 194.295 529.458L607.214 468.678C617.769 467.125 625.065 457.305 623.511 446.745L610.453 358.037C608.899 347.477 599.083 340.176 588.528 341.729Z" fill="white" fill-opacity="0.9"/>
<path fill-rule="evenodd" clip-rule="evenodd" d="M578.672 399.47C578.077 400.228 578.233 401.29 579.022 401.845L586.417 407.05L580.835 414.165C580.24 414.924 580.397 415.985 581.185 416.54C581.973 417.095 583.091 416.931 583.686 416.172L590.344 407.685C590.939 406.927 590.783 405.865 589.995 405.31L581.174 399.102C580.78 398.825 580.303 398.727 579.851 398.794C579.398 398.86 578.969 399.092 578.672 399.47Z" fill="#E3D1E1"/>
<mask id="mask2_41_200" style="mask-type:alpha" maskUnits="userSpaceOnUse" x="184" y="418" width="81" height="81">
<path d="M246.348 418.613L192.211 426.582C187.228 427.315 183.783 431.951 184.517 436.937L192.49 491.102C193.224 496.088 197.859 499.535 202.842 498.801L256.979 490.833C261.962 490.099 265.407 485.463 264.673 480.477L256.7 426.312C255.966 421.326 251.331 417.879 246.348 418.613Z" fill="white"/>
</mask>
<g mask="url(#mask2_41_200)">
<path d="M246.369 418.754L192.232 426.723C187.249 427.456 183.804 432.093 184.538 437.078L192.511 491.243C193.245 496.229 197.88 499.676 202.863 498.943L257 490.974C261.983 490.24 265.428 485.604 264.694 480.618L256.721 426.453C255.987 421.468 251.352 418.02 246.369 418.754Z" fill="#F498E0" fill-opacity="0.16"/>
</g>
</g>
<rect x="279.075" y="425.468" width="218.139" height="17.1089" rx="6.76486" transform="rotate(-8.37353 279.075 425.468)" fill="#F498E0" fill-opacity="0.16"/>
<rect x="283.747" y="457.206" width="133.307" height="17.1089" rx="6.76486" transform="rotate(-8.37353 283.747 457.206)" fill="#F498E0" fill-opacity="0.08"/>
</g>
<g filter="url(#filter2_d_41_200)">
<mask id="mask3_41_200" style="mask-type:alpha" maskUnits="userSpaceOnUse" x="79" y="187" width="599" height="243">
<path d="M631.754 187.732L100.858 265.878C87.288 267.875 77.9072 280.501 79.9057 294.078L96.6937 408.131C98.6922 421.708 111.313 431.095 124.883 429.098L655.78 350.952C669.35 348.955 678.73 336.329 676.732 322.752L659.944 208.699C657.945 195.122 645.325 185.735 631.754 187.732Z" fill="white"/>
</mask>
<g mask="url(#mask3_41_200)">
<g filter="url(#filter3_bd_41_200)">
<path d="M631.754 187.732L100.858 265.878C87.288 267.875 77.9072 280.501 79.9057 294.078L96.6937 408.131C98.6922 421.708 111.313 431.095 124.883 429.098L655.78 350.952C669.35 348.955 678.73 336.329 676.732 322.752L659.944 208.699C657.945 195.122 645.325 185.735 631.754 187.732Z" fill="#DF9AE4" fill-opacity="0.8" shape-rendering="crispEdges"/>
</g>
<path fill-rule="evenodd" clip-rule="evenodd" d="M619.082 261.97C618.317 262.945 618.518 264.31 619.532 265.023L629.04 271.716L621.864 280.864C621.098 281.839 621.299 283.204 622.313 283.917C623.327 284.631 624.764 284.419 625.529 283.444L634.089 272.532C634.854 271.557 634.653 270.192 633.64 269.479L622.298 261.496C621.793 261.141 621.18 261.015 620.597 261.1C620.015 261.186 619.464 261.483 619.082 261.97Z" fill="white" fill-opacity="0.29"/>
<g filter="url(#filter4_d_41_200)">
<path d="M191.809 286.583L122.204 296.828C115.797 297.771 111.368 303.732 112.312 310.142L122.563 379.783C123.506 386.193 129.465 390.625 135.872 389.682L205.477 379.437C211.883 378.494 216.312 372.533 215.369 366.122L205.118 296.482C204.175 290.072 198.216 285.64 191.809 286.583Z" fill="white"/>
</g>
</g>
<rect x="242.042" y="303.92" width="218.139" height="17.1089" rx="6.76486" transform="rotate(-8.37353 242.042 303.92)" fill="white"/>
<rect x="246.713" y="335.658" width="133.307" height="17.1089" rx="6.76486" transform="rotate(-8.37353 246.713 335.658)" fill="white" fill-opacity="0.51"/>
</g>
<defs>
<filter id="filter0_d_41_200" x="113.986" y="80.7415" width="478.847" height="202.375" filterUnits="userSpaceOnUse" color-interpolation-filters="sRGB">
<feFlood flood-opacity="0" result="BackgroundImageFix"/>
<feColorMatrix in="SourceAlpha" type="matrix" values="0 0 0 0 0 0 0 0 0 0 0 0 0 0 0 0 0 0 127 0" result="hardAlpha"/>
<feOffset dy="4.50991"/>
<feGaussianBlur stdDeviation="2.25496"/>
<feColorMatrix type="matrix" values="0 0 0 0 0 0 0 0 0 0 0 0 0 0 0 0 0 0 0.04 0"/>
<feBlend mode="normal" in2="BackgroundImageFix" result="effect1_dropShadow_41_200"/>
<feBlend mode="normal" in="SourceGraphic" in2="effect1_dropShadow_41_200" result="shape"/>
</filter>
<filter id="filter1_d_41_200" x="151.988" y="338.916" width="478.847" height="202.375" filterUnits="userSpaceOnUse" color-interpolation-filters="sRGB">
<feFlood flood-opacity="0" result="BackgroundImageFix"/>
<feColorMatrix in="SourceAlpha" type="matrix" values="0 0 0 0 0 0 0 0 0 0 0 0 0 0 0 0 0 0 127 0" result="hardAlpha"/>
<feOffset dy="4.50991"/>
<feGaussianBlur stdDeviation="2.25496"/>
<feColorMatrix type="matrix" values="0 0 0 0 0 0 0 0 0 0 0 0 0 0 0 0 0 0 0.04 0"/>
<feBlend mode="normal" in2="BackgroundImageFix" result="effect1_dropShadow_41_200"/>
<feBlend mode="normal" in="SourceGraphic" in2="effect1_dropShadow_41_200" result="shape"/>
</filter>
<filter id="filter2_d_41_200" x="-2.63631" y="139.017" width="761.91" height="406.446" filterUnits="userSpaceOnUse" color-interpolation-filters="sRGB">
<feFlood flood-opacity="0" result="BackgroundImageFix"/>
<feColorMatrix in="SourceAlpha" type="matrix" values="0 0 0 0 0 0 0 0 0 0 0 0 0 0 0 0 0 0 127 0" result="hardAlpha"/>
<feOffset dy="33.8243"/>
<feGaussianBlur stdDeviation="39.4617"/>
<feColorMatrix type="matrix" values="0 0 0 0 0 0 0 0 0 0 0 0 0 0 0 0 0 0 0.16 0"/>
<feBlend mode="normal" in2="BackgroundImageFix" result="effect1_dropShadow_41_200"/>
<feBlend mode="normal" in="SourceGraphic" in2="effect1_dropShadow_41_200" result="shape"/>
</filter>
<filter id="filter3_bd_41_200" x="59.6372" y="167.464" width="637.363" height="281.901" filterUnits="userSpaceOnUse" color-interpolation-filters="sRGB">
<feFlood flood-opacity="0" result="BackgroundImageFix"/>
<feGaussianBlur in="BackgroundImage" stdDeviation="10"/>
<feComposite in2="SourceAlpha" operator="in" result="effect1_backgroundBlur_41_200"/>
<feColorMatrix in="SourceAlpha" type="matrix" values="0 0 0 0 0 0 0 0 0 0 0 0 0 0 0 0 0 0 127 0" result="hardAlpha"/>
<feOffset dy="4"/>
<feGaussianBlur stdDeviation="2"/>
<feComposite in2="hardAlpha" operator="out"/>
<feColorMatrix type="matrix" values="0 0 0 0 0 0 0 0 0 0 0 0 0 0 0 0 0 0 0.25 0"/>
<feBlend mode="normal" in2="effect1_backgroundBlur_41_200" result="effect2_dropShadow_41_200"/>
<feBlend mode="normal" in="SourceGraphic" in2="effect2_dropShadow_41_200" result="shape"/>
</filter>
<filter id="filter4_d_41_200" x="55.8112" y="252.632" width="216.058" height="216.1" filterUnits="userSpaceOnUse" color-interpolation-filters="sRGB">
<feFlood flood-opacity="0" result="BackgroundImageFix"/>
<feColorMatrix in="SourceAlpha" type="matrix" values="0 0 0 0 0 0 0 0 0 0 0 0 0 0 0 0 0 0 127 0" result="hardAlpha"/>
<feOffset dy="22.5495"/>
<feGaussianBlur stdDeviation="28.1869"/>
<feColorMatrix type="matrix" values="0 0 0 0 0 0 0 0 0 0 0 0 0 0 0 0 0 0 0.08 0"/>
<feBlend mode="normal" in2="BackgroundImageFix" result="effect1_dropShadow_41_200"/>
<feBlend mode="normal" in="SourceGraphic" in2="effect1_dropShadow_41_200" result="shape"/>
</filter>
</defs>
</svg>
