<svg width="89" height="38" viewBox="0 0 89 38" fill="none" xmlns="http://www.w3.org/2000/svg">
<path d="M0 12.1138C0.80436 13.1693 2.26226 15.2804 2.96608 18.1958C3.97153 22.3677 6.13325 28.6005 7.6917 31.4656C9.7026 35.1349 12.7692 38 16.6402 38C23.8795 38 33.2301 28.5503 33.2301 18.4471C33.2301 10.0026 28.6051 7.33863 23.4773 7.33863C19.6566 7.33863 16.4391 10.4048 16.4391 11.7116C16.4391 11.963 16.5899 12.2143 16.8413 12.4153C19.0533 14.3254 20.2598 17.8439 20.2598 21.5132C20.2598 25.6852 19.4052 29.2037 18.6511 30.963C18.2489 29.254 17.6457 24.2778 16.9921 19.955C16.1878 14.7275 14.579 7.84127 8.64687 7.84127C3.41853 7.84127 0 10.6058 0 12.1138Z" fill="white"/>
<path d="M53.8179 14.5265L57.2364 15.5317C59.2976 15.5317 61.5599 11.8624 61.5599 8.84656H53.8179C53.8179 6.33334 54.4714 4.37302 54.4714 3.46825C54.4714 2.21164 50.6005 0 46.83 0C44.1656 0 39.8924 1.45767 39.8924 3.46825C39.8924 4.42328 40.5962 7.33863 40.5962 9.29894L37.982 8.49471C35.9711 8.49471 35.6695 13.4206 35.6695 14.8783H39.5908C40.194 14.8783 40.5962 15.6323 40.5962 16.6878V29.455C40.5962 33.9788 42.3558 38 49.1426 38C55.678 38 61.208 35.3862 61.208 32.0688C61.208 31.4656 60.9063 30.3095 60.4539 30.1085C59.3479 31.164 56.7337 31.9683 55.4769 31.9683C54.5217 31.9683 53.8179 31.3148 53.8179 30.1085V14.5265Z" fill="white"/>
<path d="M66.7293 29.5556C66.7293 31.918 66.2768 34.9339 66.2768 35.7884C66.2768 36.3915 66.5282 36.7434 66.7795 36.8942C67.4834 37.246 70.1478 37.4974 73.2144 37.4974C75.9292 37.4974 78.7947 37.4471 79.8001 37.1958C80.152 37.0952 80.6045 36.4921 80.6045 35.9392C80.6045 35.0847 79.9509 32.5212 79.9509 30.7116V19.8042C79.9509 18.045 81.258 16.4365 82.7662 16.4365C84.1738 16.4365 85.4306 17.1402 85.8328 17.9947C87.3913 17.4418 89 15.3307 89 12.2143C89 9.5 87.1902 7.84127 84.023 7.84127C80.9564 7.84127 77.9903 10.0026 76.9346 12.7169C75.7783 10.0026 73.868 8.7963 71.0527 8.7963C67.4834 8.7963 63.914 10.6561 63.914 13.6217C63.914 13.7725 63.9643 13.9233 64.0146 14.0238C65.1708 14.5265 66.7293 16.2857 66.7293 18.8492V29.5556Z" fill="white"/>
</svg>
